<mxfile host="Electron" modified="2023-05-22T09:53:03.755Z" agent="Mozilla/5.0 (Windows NT 10.0; Win64; x64) AppleWebKit/537.36 (KHTML, like Gecko) draw.io/21.2.8 Chrome/112.0.5615.165 Electron/24.2.0 Safari/537.36" etag="zUa9K7fgJpfzfHJRh78b" version="21.2.8" type="device">
  <diagram name="第1頁" id="AanB8yNyS1pnc1NzVk0f">
    <mxGraphModel dx="1036" dy="702" grid="1" gridSize="10" guides="1" tooltips="1" connect="1" arrows="1" fold="1" page="1" pageScale="1" pageWidth="2336" pageHeight="1654" math="0" shadow="0">
      <root>
        <mxCell id="0" />
        <mxCell id="1" parent="0" />
        <mxCell id="gfehp5p-V9e-1P1ylHKR-1" value="" style="shape=table;startSize=0;container=1;collapsible=0;childLayout=tableLayout;fontSize=16;" parent="1" vertex="1">
          <mxGeometry x="400" y="260" width="267" height="40" as="geometry" />
        </mxCell>
        <mxCell id="gfehp5p-V9e-1P1ylHKR-2" value="" style="shape=tableRow;horizontal=0;startSize=0;swimlaneHead=0;swimlaneBody=0;strokeColor=inherit;top=0;left=0;bottom=0;right=0;collapsible=0;dropTarget=0;fillColor=none;points=[[0,0.5],[1,0.5]];portConstraint=eastwest;fontSize=16;" parent="gfehp5p-V9e-1P1ylHKR-1" vertex="1">
          <mxGeometry width="267" height="40" as="geometry" />
        </mxCell>
        <mxCell id="gfehp5p-V9e-1P1ylHKR-3" value="" style="shape=partialRectangle;html=1;whiteSpace=wrap;connectable=0;strokeColor=inherit;overflow=hidden;fillColor=none;top=0;left=0;bottom=0;right=0;pointerEvents=1;fontSize=16;" parent="gfehp5p-V9e-1P1ylHKR-2" vertex="1">
          <mxGeometry width="15" height="40" as="geometry">
            <mxRectangle width="15" height="40" as="alternateBounds" />
          </mxGeometry>
        </mxCell>
        <mxCell id="gfehp5p-V9e-1P1ylHKR-4" value="8" style="shape=partialRectangle;html=1;whiteSpace=wrap;connectable=0;strokeColor=inherit;overflow=hidden;fillColor=none;top=0;left=0;bottom=0;right=0;pointerEvents=1;fontSize=16;" parent="gfehp5p-V9e-1P1ylHKR-2" vertex="1">
          <mxGeometry x="15" width="48" height="40" as="geometry">
            <mxRectangle width="48" height="40" as="alternateBounds" />
          </mxGeometry>
        </mxCell>
        <mxCell id="gfehp5p-V9e-1P1ylHKR-5" value="" style="shape=partialRectangle;html=1;whiteSpace=wrap;connectable=0;strokeColor=inherit;overflow=hidden;fillColor=none;top=0;left=0;bottom=0;right=0;pointerEvents=1;fontSize=16;" parent="gfehp5p-V9e-1P1ylHKR-2" vertex="1">
          <mxGeometry x="63" width="15" height="40" as="geometry">
            <mxRectangle width="15" height="40" as="alternateBounds" />
          </mxGeometry>
        </mxCell>
        <mxCell id="gfehp5p-V9e-1P1ylHKR-22" value="18" style="shape=partialRectangle;html=1;whiteSpace=wrap;connectable=0;strokeColor=inherit;overflow=hidden;fillColor=none;top=0;left=0;bottom=0;right=0;pointerEvents=1;fontSize=16;" parent="gfehp5p-V9e-1P1ylHKR-2" vertex="1">
          <mxGeometry x="78" width="48" height="40" as="geometry">
            <mxRectangle width="48" height="40" as="alternateBounds" />
          </mxGeometry>
        </mxCell>
        <mxCell id="gfehp5p-V9e-1P1ylHKR-29" style="shape=partialRectangle;html=1;whiteSpace=wrap;connectable=0;strokeColor=inherit;overflow=hidden;fillColor=none;top=0;left=0;bottom=0;right=0;pointerEvents=1;fontSize=16;" parent="gfehp5p-V9e-1P1ylHKR-2" vertex="1">
          <mxGeometry x="126" width="15" height="40" as="geometry">
            <mxRectangle width="15" height="40" as="alternateBounds" />
          </mxGeometry>
        </mxCell>
        <mxCell id="gfehp5p-V9e-1P1ylHKR-30" value="32" style="shape=partialRectangle;html=1;whiteSpace=wrap;connectable=0;strokeColor=inherit;overflow=hidden;fillColor=none;top=0;left=0;bottom=0;right=0;pointerEvents=1;fontSize=16;" parent="gfehp5p-V9e-1P1ylHKR-2" vertex="1">
          <mxGeometry x="141" width="48" height="40" as="geometry">
            <mxRectangle width="48" height="40" as="alternateBounds" />
          </mxGeometry>
        </mxCell>
        <mxCell id="gfehp5p-V9e-1P1ylHKR-31" style="shape=partialRectangle;html=1;whiteSpace=wrap;connectable=0;strokeColor=inherit;overflow=hidden;fillColor=none;top=0;left=0;bottom=0;right=0;pointerEvents=1;fontSize=16;" parent="gfehp5p-V9e-1P1ylHKR-2" vertex="1">
          <mxGeometry x="189" width="15" height="40" as="geometry">
            <mxRectangle width="15" height="40" as="alternateBounds" />
          </mxGeometry>
        </mxCell>
        <mxCell id="gfehp5p-V9e-1P1ylHKR-32" value="40" style="shape=partialRectangle;html=1;whiteSpace=wrap;connectable=0;strokeColor=inherit;overflow=hidden;fillColor=none;top=0;left=0;bottom=0;right=0;pointerEvents=1;fontSize=16;" parent="gfehp5p-V9e-1P1ylHKR-2" vertex="1">
          <mxGeometry x="204" width="48" height="40" as="geometry">
            <mxRectangle width="48" height="40" as="alternateBounds" />
          </mxGeometry>
        </mxCell>
        <mxCell id="gfehp5p-V9e-1P1ylHKR-33" style="shape=partialRectangle;html=1;whiteSpace=wrap;connectable=0;strokeColor=inherit;overflow=hidden;fillColor=none;top=0;left=0;bottom=0;right=0;pointerEvents=1;fontSize=16;" parent="gfehp5p-V9e-1P1ylHKR-2" vertex="1">
          <mxGeometry x="252" width="15" height="40" as="geometry">
            <mxRectangle width="15" height="40" as="alternateBounds" />
          </mxGeometry>
        </mxCell>
        <mxCell id="gfehp5p-V9e-1P1ylHKR-23" value="" style="shape=table;startSize=0;container=1;collapsible=0;childLayout=tableLayout;fontSize=16;" parent="1" vertex="1">
          <mxGeometry x="20" y="380" width="190" height="40" as="geometry" />
        </mxCell>
        <mxCell id="gfehp5p-V9e-1P1ylHKR-24" value="" style="shape=tableRow;horizontal=0;startSize=0;swimlaneHead=0;swimlaneBody=0;strokeColor=inherit;top=0;left=0;bottom=0;right=0;collapsible=0;dropTarget=0;fillColor=none;points=[[0,0.5],[1,0.5]];portConstraint=eastwest;fontSize=16;" parent="gfehp5p-V9e-1P1ylHKR-23" vertex="1">
          <mxGeometry width="190" height="40" as="geometry" />
        </mxCell>
        <mxCell id="gfehp5p-V9e-1P1ylHKR-25" value="1" style="shape=partialRectangle;html=1;whiteSpace=wrap;connectable=0;strokeColor=inherit;overflow=hidden;fillColor=none;top=0;left=0;bottom=0;right=0;pointerEvents=1;fontSize=16;" parent="gfehp5p-V9e-1P1ylHKR-24" vertex="1">
          <mxGeometry width="48" height="40" as="geometry">
            <mxRectangle width="48" height="40" as="alternateBounds" />
          </mxGeometry>
        </mxCell>
        <mxCell id="gfehp5p-V9e-1P1ylHKR-26" value="2" style="shape=partialRectangle;html=1;whiteSpace=wrap;connectable=0;strokeColor=inherit;overflow=hidden;fillColor=none;top=0;left=0;bottom=0;right=0;pointerEvents=1;fontSize=16;" parent="gfehp5p-V9e-1P1ylHKR-24" vertex="1">
          <mxGeometry x="48" width="47" height="40" as="geometry">
            <mxRectangle width="47" height="40" as="alternateBounds" />
          </mxGeometry>
        </mxCell>
        <mxCell id="gfehp5p-V9e-1P1ylHKR-27" value="5" style="shape=partialRectangle;html=1;whiteSpace=wrap;connectable=0;overflow=hidden;top=0;left=0;bottom=0;right=0;pointerEvents=1;fontSize=16;fillColor=none;strokeColor=inherit;" parent="gfehp5p-V9e-1P1ylHKR-24" vertex="1">
          <mxGeometry x="95" width="48" height="40" as="geometry">
            <mxRectangle width="48" height="40" as="alternateBounds" />
          </mxGeometry>
        </mxCell>
        <mxCell id="gfehp5p-V9e-1P1ylHKR-28" value="6" style="shape=partialRectangle;html=1;whiteSpace=wrap;connectable=0;strokeColor=inherit;overflow=hidden;fillColor=none;top=0;left=0;bottom=0;right=0;pointerEvents=1;fontSize=16;" parent="gfehp5p-V9e-1P1ylHKR-24" vertex="1">
          <mxGeometry x="143" width="47" height="40" as="geometry">
            <mxRectangle width="47" height="40" as="alternateBounds" />
          </mxGeometry>
        </mxCell>
        <mxCell id="gfehp5p-V9e-1P1ylHKR-34" value="" style="endArrow=classic;html=1;rounded=0;exitX=0.027;exitY=0.992;exitDx=0;exitDy=0;exitPerimeter=0;entryX=0.497;entryY=0.012;entryDx=0;entryDy=0;entryPerimeter=0;strokeWidth=1;" parent="1" source="gfehp5p-V9e-1P1ylHKR-2" target="gfehp5p-V9e-1P1ylHKR-24" edge="1">
          <mxGeometry width="50" height="50" relative="1" as="geometry">
            <mxPoint x="340" y="570" as="sourcePoint" />
            <mxPoint x="390" y="520" as="targetPoint" />
          </mxGeometry>
        </mxCell>
        <mxCell id="gfehp5p-V9e-1P1ylHKR-36" value="&lt;font style=&quot;font-size: 16px;&quot;&gt;Root&lt;/font&gt;" style="rounded=0;whiteSpace=wrap;html=1;" parent="1" vertex="1">
          <mxGeometry x="1048.5" y="60" width="50" height="40" as="geometry" />
        </mxCell>
        <mxCell id="9ntbfwSOvVafJQgxA-3O-5" value="" style="shape=table;startSize=0;container=1;collapsible=0;childLayout=tableLayout;fontSize=16;" parent="1" vertex="1">
          <mxGeometry x="440" y="380" width="190" height="40" as="geometry" />
        </mxCell>
        <mxCell id="9ntbfwSOvVafJQgxA-3O-6" value="" style="shape=tableRow;horizontal=0;startSize=0;swimlaneHead=0;swimlaneBody=0;strokeColor=inherit;top=0;left=0;bottom=0;right=0;collapsible=0;dropTarget=0;fillColor=none;points=[[0,0.5],[1,0.5]];portConstraint=eastwest;fontSize=16;" parent="9ntbfwSOvVafJQgxA-3O-5" vertex="1">
          <mxGeometry width="190" height="40" as="geometry" />
        </mxCell>
        <mxCell id="9ntbfwSOvVafJQgxA-3O-7" value="18" style="shape=partialRectangle;html=1;whiteSpace=wrap;connectable=0;strokeColor=inherit;overflow=hidden;fillColor=none;top=0;left=0;bottom=0;right=0;pointerEvents=1;fontSize=16;" parent="9ntbfwSOvVafJQgxA-3O-6" vertex="1">
          <mxGeometry width="48" height="40" as="geometry">
            <mxRectangle width="48" height="40" as="alternateBounds" />
          </mxGeometry>
        </mxCell>
        <mxCell id="9ntbfwSOvVafJQgxA-3O-8" value="27" style="shape=partialRectangle;html=1;whiteSpace=wrap;connectable=0;strokeColor=inherit;overflow=hidden;fillColor=none;top=0;left=0;bottom=0;right=0;pointerEvents=1;fontSize=16;" parent="9ntbfwSOvVafJQgxA-3O-6" vertex="1">
          <mxGeometry x="48" width="47" height="40" as="geometry">
            <mxRectangle width="47" height="40" as="alternateBounds" />
          </mxGeometry>
        </mxCell>
        <mxCell id="9ntbfwSOvVafJQgxA-3O-9" value="29" style="shape=partialRectangle;html=1;whiteSpace=wrap;connectable=0;overflow=hidden;top=0;left=0;bottom=0;right=0;pointerEvents=1;fontSize=16;fillColor=none;strokeColor=inherit;" parent="9ntbfwSOvVafJQgxA-3O-6" vertex="1">
          <mxGeometry x="95" width="48" height="40" as="geometry">
            <mxRectangle width="48" height="40" as="alternateBounds" />
          </mxGeometry>
        </mxCell>
        <mxCell id="9ntbfwSOvVafJQgxA-3O-10" value="30" style="shape=partialRectangle;html=1;whiteSpace=wrap;connectable=0;strokeColor=inherit;overflow=hidden;fillColor=none;top=0;left=0;bottom=0;right=0;pointerEvents=1;fontSize=16;" parent="9ntbfwSOvVafJQgxA-3O-6" vertex="1">
          <mxGeometry x="143" width="47" height="40" as="geometry">
            <mxRectangle width="47" height="40" as="alternateBounds" />
          </mxGeometry>
        </mxCell>
        <mxCell id="DPHD8KvLjeDx3O2cw2pP-1" value="" style="shape=table;startSize=0;container=1;collapsible=0;childLayout=tableLayout;fontSize=16;" parent="1" vertex="1">
          <mxGeometry x="650" y="380" width="190" height="40" as="geometry" />
        </mxCell>
        <mxCell id="DPHD8KvLjeDx3O2cw2pP-2" value="" style="shape=tableRow;horizontal=0;startSize=0;swimlaneHead=0;swimlaneBody=0;strokeColor=inherit;top=0;left=0;bottom=0;right=0;collapsible=0;dropTarget=0;fillColor=none;points=[[0,0.5],[1,0.5]];portConstraint=eastwest;fontSize=16;" parent="DPHD8KvLjeDx3O2cw2pP-1" vertex="1">
          <mxGeometry width="190" height="40" as="geometry" />
        </mxCell>
        <mxCell id="DPHD8KvLjeDx3O2cw2pP-3" value="32" style="shape=partialRectangle;html=1;whiteSpace=wrap;connectable=0;strokeColor=inherit;overflow=hidden;fillColor=none;top=0;left=0;bottom=0;right=0;pointerEvents=1;fontSize=16;" parent="DPHD8KvLjeDx3O2cw2pP-2" vertex="1">
          <mxGeometry width="48" height="40" as="geometry">
            <mxRectangle width="48" height="40" as="alternateBounds" />
          </mxGeometry>
        </mxCell>
        <mxCell id="DPHD8KvLjeDx3O2cw2pP-4" value="39" style="shape=partialRectangle;html=1;whiteSpace=wrap;connectable=0;strokeColor=inherit;overflow=hidden;fillColor=none;top=0;left=0;bottom=0;right=0;pointerEvents=1;fontSize=16;" parent="DPHD8KvLjeDx3O2cw2pP-2" vertex="1">
          <mxGeometry x="48" width="47" height="40" as="geometry">
            <mxRectangle width="47" height="40" as="alternateBounds" />
          </mxGeometry>
        </mxCell>
        <mxCell id="DPHD8KvLjeDx3O2cw2pP-5" value="" style="shape=partialRectangle;html=1;whiteSpace=wrap;connectable=0;overflow=hidden;top=0;left=0;bottom=0;right=0;pointerEvents=1;fontSize=16;fillColor=none;strokeColor=inherit;" parent="DPHD8KvLjeDx3O2cw2pP-2" vertex="1">
          <mxGeometry x="95" width="48" height="40" as="geometry">
            <mxRectangle width="48" height="40" as="alternateBounds" />
          </mxGeometry>
        </mxCell>
        <mxCell id="DPHD8KvLjeDx3O2cw2pP-6" value="" style="shape=partialRectangle;html=1;whiteSpace=wrap;connectable=0;strokeColor=inherit;overflow=hidden;fillColor=none;top=0;left=0;bottom=0;right=0;pointerEvents=1;fontSize=16;" parent="DPHD8KvLjeDx3O2cw2pP-2" vertex="1">
          <mxGeometry x="143" width="47" height="40" as="geometry">
            <mxRectangle width="47" height="40" as="alternateBounds" />
          </mxGeometry>
        </mxCell>
        <mxCell id="DPHD8KvLjeDx3O2cw2pP-7" value="" style="shape=table;startSize=0;container=1;collapsible=0;childLayout=tableLayout;fontSize=16;" parent="1" vertex="1">
          <mxGeometry x="860" y="380" width="190" height="40" as="geometry" />
        </mxCell>
        <mxCell id="DPHD8KvLjeDx3O2cw2pP-8" value="" style="shape=tableRow;horizontal=0;startSize=0;swimlaneHead=0;swimlaneBody=0;strokeColor=inherit;top=0;left=0;bottom=0;right=0;collapsible=0;dropTarget=0;fillColor=none;points=[[0,0.5],[1,0.5]];portConstraint=eastwest;fontSize=16;" parent="DPHD8KvLjeDx3O2cw2pP-7" vertex="1">
          <mxGeometry width="190" height="40" as="geometry" />
        </mxCell>
        <mxCell id="DPHD8KvLjeDx3O2cw2pP-9" value="41" style="shape=partialRectangle;html=1;whiteSpace=wrap;connectable=0;strokeColor=inherit;overflow=hidden;fillColor=none;top=0;left=0;bottom=0;right=0;pointerEvents=1;fontSize=16;" parent="DPHD8KvLjeDx3O2cw2pP-8" vertex="1">
          <mxGeometry width="48" height="40" as="geometry">
            <mxRectangle width="48" height="40" as="alternateBounds" />
          </mxGeometry>
        </mxCell>
        <mxCell id="DPHD8KvLjeDx3O2cw2pP-10" value="45" style="shape=partialRectangle;html=1;whiteSpace=wrap;connectable=0;strokeColor=inherit;overflow=hidden;fillColor=none;top=0;left=0;bottom=0;right=0;pointerEvents=1;fontSize=16;" parent="DPHD8KvLjeDx3O2cw2pP-8" vertex="1">
          <mxGeometry x="48" width="47" height="40" as="geometry">
            <mxRectangle width="47" height="40" as="alternateBounds" />
          </mxGeometry>
        </mxCell>
        <mxCell id="DPHD8KvLjeDx3O2cw2pP-11" value="" style="shape=partialRectangle;html=1;whiteSpace=wrap;connectable=0;overflow=hidden;top=0;left=0;bottom=0;right=0;pointerEvents=1;fontSize=16;fillColor=none;strokeColor=inherit;" parent="DPHD8KvLjeDx3O2cw2pP-8" vertex="1">
          <mxGeometry x="95" width="48" height="40" as="geometry">
            <mxRectangle width="48" height="40" as="alternateBounds" />
          </mxGeometry>
        </mxCell>
        <mxCell id="DPHD8KvLjeDx3O2cw2pP-12" value="" style="shape=partialRectangle;html=1;whiteSpace=wrap;connectable=0;strokeColor=inherit;overflow=hidden;fillColor=none;top=0;left=0;bottom=0;right=0;pointerEvents=1;fontSize=16;" parent="DPHD8KvLjeDx3O2cw2pP-8" vertex="1">
          <mxGeometry x="143" width="47" height="40" as="geometry">
            <mxRectangle width="47" height="40" as="alternateBounds" />
          </mxGeometry>
        </mxCell>
        <mxCell id="DPHD8KvLjeDx3O2cw2pP-19" value="" style="shape=table;startSize=0;container=1;collapsible=0;childLayout=tableLayout;fontSize=16;" parent="1" vertex="1">
          <mxGeometry x="230" y="380" width="190" height="40" as="geometry" />
        </mxCell>
        <mxCell id="DPHD8KvLjeDx3O2cw2pP-20" value="" style="shape=tableRow;horizontal=0;startSize=0;swimlaneHead=0;swimlaneBody=0;strokeColor=inherit;top=0;left=0;bottom=0;right=0;collapsible=0;dropTarget=0;fillColor=none;points=[[0,0.5],[1,0.5]];portConstraint=eastwest;fontSize=16;" parent="DPHD8KvLjeDx3O2cw2pP-19" vertex="1">
          <mxGeometry width="190" height="40" as="geometry" />
        </mxCell>
        <mxCell id="DPHD8KvLjeDx3O2cw2pP-21" value="8" style="shape=partialRectangle;html=1;whiteSpace=wrap;connectable=0;strokeColor=inherit;overflow=hidden;fillColor=none;top=0;left=0;bottom=0;right=0;pointerEvents=1;fontSize=16;" parent="DPHD8KvLjeDx3O2cw2pP-20" vertex="1">
          <mxGeometry width="48" height="40" as="geometry">
            <mxRectangle width="48" height="40" as="alternateBounds" />
          </mxGeometry>
        </mxCell>
        <mxCell id="DPHD8KvLjeDx3O2cw2pP-22" value="10" style="shape=partialRectangle;html=1;whiteSpace=wrap;connectable=0;strokeColor=inherit;overflow=hidden;fillColor=none;top=0;left=0;bottom=0;right=0;pointerEvents=1;fontSize=16;" parent="DPHD8KvLjeDx3O2cw2pP-20" vertex="1">
          <mxGeometry x="48" width="47" height="40" as="geometry">
            <mxRectangle width="47" height="40" as="alternateBounds" />
          </mxGeometry>
        </mxCell>
        <mxCell id="DPHD8KvLjeDx3O2cw2pP-23" value="" style="shape=partialRectangle;html=1;whiteSpace=wrap;connectable=0;overflow=hidden;top=0;left=0;bottom=0;right=0;pointerEvents=1;fontSize=16;fillColor=none;strokeColor=inherit;" parent="DPHD8KvLjeDx3O2cw2pP-20" vertex="1">
          <mxGeometry x="95" width="48" height="40" as="geometry">
            <mxRectangle width="48" height="40" as="alternateBounds" />
          </mxGeometry>
        </mxCell>
        <mxCell id="DPHD8KvLjeDx3O2cw2pP-24" value="" style="shape=partialRectangle;html=1;whiteSpace=wrap;connectable=0;strokeColor=inherit;overflow=hidden;fillColor=none;top=0;left=0;bottom=0;right=0;pointerEvents=1;fontSize=16;" parent="DPHD8KvLjeDx3O2cw2pP-20" vertex="1">
          <mxGeometry x="143" width="47" height="40" as="geometry">
            <mxRectangle width="47" height="40" as="alternateBounds" />
          </mxGeometry>
        </mxCell>
        <mxCell id="DPHD8KvLjeDx3O2cw2pP-27" value="" style="endArrow=classic;html=1;rounded=0;entryX=0.498;entryY=0.012;entryDx=0;entryDy=0;entryPerimeter=0;exitX=0.265;exitY=1.015;exitDx=0;exitDy=0;exitPerimeter=0;" parent="1" source="gfehp5p-V9e-1P1ylHKR-2" target="DPHD8KvLjeDx3O2cw2pP-20" edge="1">
          <mxGeometry width="50" height="50" relative="1" as="geometry">
            <mxPoint x="480" y="390" as="sourcePoint" />
            <mxPoint x="530" y="340" as="targetPoint" />
          </mxGeometry>
        </mxCell>
        <mxCell id="DPHD8KvLjeDx3O2cw2pP-28" value="" style="endArrow=classic;html=1;rounded=0;exitX=0.502;exitY=0.995;exitDx=0;exitDy=0;exitPerimeter=0;entryX=0.496;entryY=-0.028;entryDx=0;entryDy=0;entryPerimeter=0;strokeWidth=4;" parent="1" source="gfehp5p-V9e-1P1ylHKR-2" target="9ntbfwSOvVafJQgxA-3O-6" edge="1">
          <mxGeometry width="50" height="50" relative="1" as="geometry">
            <mxPoint x="430" y="380" as="sourcePoint" />
            <mxPoint x="540" y="370" as="targetPoint" />
          </mxGeometry>
        </mxCell>
        <mxCell id="DPHD8KvLjeDx3O2cw2pP-29" value="" style="endArrow=classic;html=1;rounded=0;exitX=0.74;exitY=0.98;exitDx=0;exitDy=0;exitPerimeter=0;entryX=0.499;entryY=-0.015;entryDx=0;entryDy=0;entryPerimeter=0;strokeWidth=1;" parent="1" source="gfehp5p-V9e-1P1ylHKR-2" target="DPHD8KvLjeDx3O2cw2pP-2" edge="1">
          <mxGeometry width="50" height="50" relative="1" as="geometry">
            <mxPoint x="680" y="380" as="sourcePoint" />
            <mxPoint x="730" y="330" as="targetPoint" />
          </mxGeometry>
        </mxCell>
        <mxCell id="DPHD8KvLjeDx3O2cw2pP-30" value="" style="endArrow=classic;html=1;rounded=0;exitX=0.968;exitY=0.98;exitDx=0;exitDy=0;exitPerimeter=0;entryX=0.501;entryY=-0.008;entryDx=0;entryDy=0;entryPerimeter=0;strokeWidth=1;" parent="1" source="gfehp5p-V9e-1P1ylHKR-2" target="DPHD8KvLjeDx3O2cw2pP-8" edge="1">
          <mxGeometry width="50" height="50" relative="1" as="geometry">
            <mxPoint x="680" y="380" as="sourcePoint" />
            <mxPoint x="860" y="370" as="targetPoint" />
          </mxGeometry>
        </mxCell>
        <mxCell id="pHo-uAJ-a0RJnJzjXzOe-1" value="" style="shape=table;startSize=0;container=1;collapsible=0;childLayout=tableLayout;fontSize=16;" parent="1" vertex="1">
          <mxGeometry x="1070" y="380" width="190" height="40" as="geometry" />
        </mxCell>
        <mxCell id="pHo-uAJ-a0RJnJzjXzOe-2" value="" style="shape=tableRow;horizontal=0;startSize=0;swimlaneHead=0;swimlaneBody=0;strokeColor=inherit;top=0;left=0;bottom=0;right=0;collapsible=0;dropTarget=0;fillColor=none;points=[[0,0.5],[1,0.5]];portConstraint=eastwest;fontSize=16;" parent="pHo-uAJ-a0RJnJzjXzOe-1" vertex="1">
          <mxGeometry width="190" height="40" as="geometry" />
        </mxCell>
        <mxCell id="pHo-uAJ-a0RJnJzjXzOe-3" value="52" style="shape=partialRectangle;html=1;whiteSpace=wrap;connectable=0;strokeColor=inherit;overflow=hidden;fillColor=none;top=0;left=0;bottom=0;right=0;pointerEvents=1;fontSize=16;" parent="pHo-uAJ-a0RJnJzjXzOe-2" vertex="1">
          <mxGeometry width="48" height="40" as="geometry">
            <mxRectangle width="48" height="40" as="alternateBounds" />
          </mxGeometry>
        </mxCell>
        <mxCell id="pHo-uAJ-a0RJnJzjXzOe-4" value="58" style="shape=partialRectangle;html=1;whiteSpace=wrap;connectable=0;strokeColor=inherit;overflow=hidden;fillColor=none;top=0;left=0;bottom=0;right=0;pointerEvents=1;fontSize=16;" parent="pHo-uAJ-a0RJnJzjXzOe-2" vertex="1">
          <mxGeometry x="48" width="47" height="40" as="geometry">
            <mxRectangle width="47" height="40" as="alternateBounds" />
          </mxGeometry>
        </mxCell>
        <mxCell id="pHo-uAJ-a0RJnJzjXzOe-5" value="" style="shape=partialRectangle;html=1;whiteSpace=wrap;connectable=0;overflow=hidden;top=0;left=0;bottom=0;right=0;pointerEvents=1;fontSize=16;fillColor=none;strokeColor=inherit;" parent="pHo-uAJ-a0RJnJzjXzOe-2" vertex="1">
          <mxGeometry x="95" width="48" height="40" as="geometry">
            <mxRectangle width="48" height="40" as="alternateBounds" />
          </mxGeometry>
        </mxCell>
        <mxCell id="pHo-uAJ-a0RJnJzjXzOe-6" value="" style="shape=partialRectangle;html=1;whiteSpace=wrap;connectable=0;strokeColor=inherit;overflow=hidden;fillColor=none;top=0;left=0;bottom=0;right=0;pointerEvents=1;fontSize=16;" parent="pHo-uAJ-a0RJnJzjXzOe-2" vertex="1">
          <mxGeometry x="143" width="47" height="40" as="geometry">
            <mxRectangle width="47" height="40" as="alternateBounds" />
          </mxGeometry>
        </mxCell>
        <mxCell id="pHo-uAJ-a0RJnJzjXzOe-7" value="" style="endArrow=classic;html=1;rounded=0;exitX=0.024;exitY=1.02;exitDx=0;exitDy=0;exitPerimeter=0;entryX=0.617;entryY=-0.045;entryDx=0;entryDy=0;entryPerimeter=0;strokeWidth=1;" parent="1" source="yaHPV1p2FPpM4iknY5dU-15" target="pHo-uAJ-a0RJnJzjXzOe-2" edge="1">
          <mxGeometry width="50" height="50" relative="1" as="geometry">
            <mxPoint x="639" y="350" as="sourcePoint" />
            <mxPoint x="965" y="390" as="targetPoint" />
          </mxGeometry>
        </mxCell>
        <mxCell id="pHo-uAJ-a0RJnJzjXzOe-8" value="" style="endArrow=classic;html=1;rounded=0;entryX=0.5;entryY=0.035;entryDx=0;entryDy=0;entryPerimeter=0;exitX=0.5;exitY=1;exitDx=0;exitDy=0;" parent="1" source="gfehp5p-V9e-1P1ylHKR-36" target="pHo-uAJ-a0RJnJzjXzOe-23" edge="1">
          <mxGeometry width="50" height="50" relative="1" as="geometry">
            <mxPoint x="747" y="250" as="sourcePoint" />
            <mxPoint x="797" y="200" as="targetPoint" />
          </mxGeometry>
        </mxCell>
        <mxCell id="pHo-uAJ-a0RJnJzjXzOe-22" value="" style="shape=table;startSize=0;container=1;collapsible=0;childLayout=tableLayout;fontSize=16;" parent="1" vertex="1">
          <mxGeometry x="940" y="140" width="267" height="40" as="geometry" />
        </mxCell>
        <mxCell id="pHo-uAJ-a0RJnJzjXzOe-23" value="" style="shape=tableRow;horizontal=0;startSize=0;swimlaneHead=0;swimlaneBody=0;strokeColor=inherit;top=0;left=0;bottom=0;right=0;collapsible=0;dropTarget=0;fillColor=none;points=[[0,0.5],[1,0.5]];portConstraint=eastwest;fontSize=16;" parent="pHo-uAJ-a0RJnJzjXzOe-22" vertex="1">
          <mxGeometry width="267" height="40" as="geometry" />
        </mxCell>
        <mxCell id="pHo-uAJ-a0RJnJzjXzOe-24" value="" style="shape=partialRectangle;html=1;whiteSpace=wrap;connectable=0;strokeColor=inherit;overflow=hidden;fillColor=none;top=0;left=0;bottom=0;right=0;pointerEvents=1;fontSize=16;" parent="pHo-uAJ-a0RJnJzjXzOe-23" vertex="1">
          <mxGeometry width="15" height="40" as="geometry">
            <mxRectangle width="15" height="40" as="alternateBounds" />
          </mxGeometry>
        </mxCell>
        <mxCell id="pHo-uAJ-a0RJnJzjXzOe-25" value="50" style="shape=partialRectangle;html=1;whiteSpace=wrap;connectable=0;strokeColor=inherit;overflow=hidden;fillColor=none;top=0;left=0;bottom=0;right=0;pointerEvents=1;fontSize=16;" parent="pHo-uAJ-a0RJnJzjXzOe-23" vertex="1">
          <mxGeometry x="15" width="48" height="40" as="geometry">
            <mxRectangle width="48" height="40" as="alternateBounds" />
          </mxGeometry>
        </mxCell>
        <mxCell id="pHo-uAJ-a0RJnJzjXzOe-26" value="" style="shape=partialRectangle;html=1;whiteSpace=wrap;connectable=0;strokeColor=inherit;overflow=hidden;fillColor=none;top=0;left=0;bottom=0;right=0;pointerEvents=1;fontSize=16;" parent="pHo-uAJ-a0RJnJzjXzOe-23" vertex="1">
          <mxGeometry x="63" width="15" height="40" as="geometry">
            <mxRectangle width="15" height="40" as="alternateBounds" />
          </mxGeometry>
        </mxCell>
        <mxCell id="pHo-uAJ-a0RJnJzjXzOe-27" value="" style="shape=partialRectangle;html=1;whiteSpace=wrap;connectable=0;strokeColor=inherit;overflow=hidden;fillColor=none;top=0;left=0;bottom=0;right=0;pointerEvents=1;fontSize=16;" parent="pHo-uAJ-a0RJnJzjXzOe-23" vertex="1">
          <mxGeometry x="78" width="48" height="40" as="geometry">
            <mxRectangle width="48" height="40" as="alternateBounds" />
          </mxGeometry>
        </mxCell>
        <mxCell id="pHo-uAJ-a0RJnJzjXzOe-28" style="shape=partialRectangle;html=1;whiteSpace=wrap;connectable=0;strokeColor=inherit;overflow=hidden;fillColor=none;top=0;left=0;bottom=0;right=0;pointerEvents=1;fontSize=16;" parent="pHo-uAJ-a0RJnJzjXzOe-23" vertex="1">
          <mxGeometry x="126" width="15" height="40" as="geometry">
            <mxRectangle width="15" height="40" as="alternateBounds" />
          </mxGeometry>
        </mxCell>
        <mxCell id="pHo-uAJ-a0RJnJzjXzOe-29" value="" style="shape=partialRectangle;html=1;whiteSpace=wrap;connectable=0;strokeColor=inherit;overflow=hidden;fillColor=none;top=0;left=0;bottom=0;right=0;pointerEvents=1;fontSize=16;" parent="pHo-uAJ-a0RJnJzjXzOe-23" vertex="1">
          <mxGeometry x="141" width="48" height="40" as="geometry">
            <mxRectangle width="48" height="40" as="alternateBounds" />
          </mxGeometry>
        </mxCell>
        <mxCell id="pHo-uAJ-a0RJnJzjXzOe-30" style="shape=partialRectangle;html=1;whiteSpace=wrap;connectable=0;strokeColor=inherit;overflow=hidden;fillColor=none;top=0;left=0;bottom=0;right=0;pointerEvents=1;fontSize=16;" parent="pHo-uAJ-a0RJnJzjXzOe-23" vertex="1">
          <mxGeometry x="189" width="15" height="40" as="geometry">
            <mxRectangle width="15" height="40" as="alternateBounds" />
          </mxGeometry>
        </mxCell>
        <mxCell id="pHo-uAJ-a0RJnJzjXzOe-31" value="" style="shape=partialRectangle;html=1;whiteSpace=wrap;connectable=0;strokeColor=inherit;overflow=hidden;fillColor=none;top=0;left=0;bottom=0;right=0;pointerEvents=1;fontSize=16;" parent="pHo-uAJ-a0RJnJzjXzOe-23" vertex="1">
          <mxGeometry x="204" width="48" height="40" as="geometry">
            <mxRectangle width="48" height="40" as="alternateBounds" />
          </mxGeometry>
        </mxCell>
        <mxCell id="pHo-uAJ-a0RJnJzjXzOe-32" style="shape=partialRectangle;html=1;whiteSpace=wrap;connectable=0;strokeColor=inherit;overflow=hidden;fillColor=none;top=0;left=0;bottom=0;right=0;pointerEvents=1;fontSize=16;" parent="pHo-uAJ-a0RJnJzjXzOe-23" vertex="1">
          <mxGeometry x="252" width="15" height="40" as="geometry">
            <mxRectangle width="15" height="40" as="alternateBounds" />
          </mxGeometry>
        </mxCell>
        <mxCell id="pHo-uAJ-a0RJnJzjXzOe-33" value="" style="endArrow=classic;html=1;rounded=0;exitX=0.027;exitY=0.995;exitDx=0;exitDy=0;exitPerimeter=0;entryX=0.505;entryY=-0.005;entryDx=0;entryDy=0;entryPerimeter=0;strokeWidth=4;" parent="1" source="pHo-uAJ-a0RJnJzjXzOe-23" target="gfehp5p-V9e-1P1ylHKR-2" edge="1">
          <mxGeometry width="50" height="50" relative="1" as="geometry">
            <mxPoint x="1000" y="210" as="sourcePoint" />
            <mxPoint x="1050" y="160" as="targetPoint" />
          </mxGeometry>
        </mxCell>
        <mxCell id="yaHPV1p2FPpM4iknY5dU-14" value="" style="shape=table;startSize=0;container=1;collapsible=0;childLayout=tableLayout;fontSize=16;" parent="1" vertex="1">
          <mxGeometry x="1300" y="260" width="267" height="40" as="geometry" />
        </mxCell>
        <mxCell id="yaHPV1p2FPpM4iknY5dU-15" value="" style="shape=tableRow;horizontal=0;startSize=0;swimlaneHead=0;swimlaneBody=0;strokeColor=inherit;top=0;left=0;bottom=0;right=0;collapsible=0;dropTarget=0;fillColor=none;points=[[0,0.5],[1,0.5]];portConstraint=eastwest;fontSize=16;" parent="yaHPV1p2FPpM4iknY5dU-14" vertex="1">
          <mxGeometry width="267" height="40" as="geometry" />
        </mxCell>
        <mxCell id="yaHPV1p2FPpM4iknY5dU-16" value="" style="shape=partialRectangle;html=1;whiteSpace=wrap;connectable=0;strokeColor=inherit;overflow=hidden;fillColor=none;top=0;left=0;bottom=0;right=0;pointerEvents=1;fontSize=16;" parent="yaHPV1p2FPpM4iknY5dU-15" vertex="1">
          <mxGeometry width="15" height="40" as="geometry">
            <mxRectangle width="15" height="40" as="alternateBounds" />
          </mxGeometry>
        </mxCell>
        <mxCell id="yaHPV1p2FPpM4iknY5dU-17" value="73" style="shape=partialRectangle;html=1;whiteSpace=wrap;connectable=0;strokeColor=inherit;overflow=hidden;fillColor=none;top=0;left=0;bottom=0;right=0;pointerEvents=1;fontSize=16;" parent="yaHPV1p2FPpM4iknY5dU-15" vertex="1">
          <mxGeometry x="15" width="48" height="40" as="geometry">
            <mxRectangle width="48" height="40" as="alternateBounds" />
          </mxGeometry>
        </mxCell>
        <mxCell id="yaHPV1p2FPpM4iknY5dU-18" value="" style="shape=partialRectangle;html=1;whiteSpace=wrap;connectable=0;strokeColor=inherit;overflow=hidden;fillColor=none;top=0;left=0;bottom=0;right=0;pointerEvents=1;fontSize=16;" parent="yaHPV1p2FPpM4iknY5dU-15" vertex="1">
          <mxGeometry x="63" width="15" height="40" as="geometry">
            <mxRectangle width="15" height="40" as="alternateBounds" />
          </mxGeometry>
        </mxCell>
        <mxCell id="yaHPV1p2FPpM4iknY5dU-19" value="85" style="shape=partialRectangle;html=1;whiteSpace=wrap;connectable=0;strokeColor=inherit;overflow=hidden;fillColor=none;top=0;left=0;bottom=0;right=0;pointerEvents=1;fontSize=16;" parent="yaHPV1p2FPpM4iknY5dU-15" vertex="1">
          <mxGeometry x="78" width="48" height="40" as="geometry">
            <mxRectangle width="48" height="40" as="alternateBounds" />
          </mxGeometry>
        </mxCell>
        <mxCell id="yaHPV1p2FPpM4iknY5dU-20" style="shape=partialRectangle;html=1;whiteSpace=wrap;connectable=0;strokeColor=inherit;overflow=hidden;fillColor=none;top=0;left=0;bottom=0;right=0;pointerEvents=1;fontSize=16;" parent="yaHPV1p2FPpM4iknY5dU-15" vertex="1">
          <mxGeometry x="126" width="15" height="40" as="geometry">
            <mxRectangle width="15" height="40" as="alternateBounds" />
          </mxGeometry>
        </mxCell>
        <mxCell id="yaHPV1p2FPpM4iknY5dU-21" value="" style="shape=partialRectangle;html=1;whiteSpace=wrap;connectable=0;strokeColor=inherit;overflow=hidden;fillColor=none;top=0;left=0;bottom=0;right=0;pointerEvents=1;fontSize=16;" parent="yaHPV1p2FPpM4iknY5dU-15" vertex="1">
          <mxGeometry x="141" width="48" height="40" as="geometry">
            <mxRectangle width="48" height="40" as="alternateBounds" />
          </mxGeometry>
        </mxCell>
        <mxCell id="yaHPV1p2FPpM4iknY5dU-22" style="shape=partialRectangle;html=1;whiteSpace=wrap;connectable=0;strokeColor=inherit;overflow=hidden;fillColor=none;top=0;left=0;bottom=0;right=0;pointerEvents=1;fontSize=16;" parent="yaHPV1p2FPpM4iknY5dU-15" vertex="1">
          <mxGeometry x="189" width="15" height="40" as="geometry">
            <mxRectangle width="15" height="40" as="alternateBounds" />
          </mxGeometry>
        </mxCell>
        <mxCell id="yaHPV1p2FPpM4iknY5dU-23" value="" style="shape=partialRectangle;html=1;whiteSpace=wrap;connectable=0;strokeColor=inherit;overflow=hidden;fillColor=none;top=0;left=0;bottom=0;right=0;pointerEvents=1;fontSize=16;" parent="yaHPV1p2FPpM4iknY5dU-15" vertex="1">
          <mxGeometry x="204" width="48" height="40" as="geometry">
            <mxRectangle width="48" height="40" as="alternateBounds" />
          </mxGeometry>
        </mxCell>
        <mxCell id="yaHPV1p2FPpM4iknY5dU-24" style="shape=partialRectangle;html=1;whiteSpace=wrap;connectable=0;strokeColor=inherit;overflow=hidden;fillColor=none;top=0;left=0;bottom=0;right=0;pointerEvents=1;fontSize=16;" parent="yaHPV1p2FPpM4iknY5dU-15" vertex="1">
          <mxGeometry x="252" width="15" height="40" as="geometry">
            <mxRectangle width="15" height="40" as="alternateBounds" />
          </mxGeometry>
        </mxCell>
        <mxCell id="jbLV0YzgM3zEFAplnQYj-1" value="" style="endArrow=classic;html=1;rounded=0;exitX=0.266;exitY=1.012;exitDx=0;exitDy=0;exitPerimeter=0;entryX=0.499;entryY=-0.008;entryDx=0;entryDy=0;entryPerimeter=0;strokeWidth=1;" parent="1" source="pHo-uAJ-a0RJnJzjXzOe-23" target="yaHPV1p2FPpM4iknY5dU-15" edge="1">
          <mxGeometry width="50" height="50" relative="1" as="geometry">
            <mxPoint x="920" y="210" as="sourcePoint" />
            <mxPoint x="970" y="160" as="targetPoint" />
          </mxGeometry>
        </mxCell>
        <mxCell id="autU-3Pc4H1RiV7rEtkj-1" value="" style="shape=table;startSize=0;container=1;collapsible=0;childLayout=tableLayout;fontSize=16;" parent="1" vertex="1">
          <mxGeometry x="1280" y="380" width="190" height="40" as="geometry" />
        </mxCell>
        <mxCell id="autU-3Pc4H1RiV7rEtkj-2" value="" style="shape=tableRow;horizontal=0;startSize=0;swimlaneHead=0;swimlaneBody=0;strokeColor=inherit;top=0;left=0;bottom=0;right=0;collapsible=0;dropTarget=0;fillColor=none;points=[[0,0.5],[1,0.5]];portConstraint=eastwest;fontSize=16;" parent="autU-3Pc4H1RiV7rEtkj-1" vertex="1">
          <mxGeometry width="190" height="40" as="geometry" />
        </mxCell>
        <mxCell id="autU-3Pc4H1RiV7rEtkj-3" value="73" style="shape=partialRectangle;html=1;whiteSpace=wrap;connectable=0;strokeColor=inherit;overflow=hidden;fillColor=none;top=0;left=0;bottom=0;right=0;pointerEvents=1;fontSize=16;" parent="autU-3Pc4H1RiV7rEtkj-2" vertex="1">
          <mxGeometry width="48" height="40" as="geometry">
            <mxRectangle width="48" height="40" as="alternateBounds" />
          </mxGeometry>
        </mxCell>
        <mxCell id="autU-3Pc4H1RiV7rEtkj-4" value="80" style="shape=partialRectangle;html=1;whiteSpace=wrap;connectable=0;strokeColor=inherit;overflow=hidden;fillColor=none;top=0;left=0;bottom=0;right=0;pointerEvents=1;fontSize=16;" parent="autU-3Pc4H1RiV7rEtkj-2" vertex="1">
          <mxGeometry x="48" width="47" height="40" as="geometry">
            <mxRectangle width="47" height="40" as="alternateBounds" />
          </mxGeometry>
        </mxCell>
        <mxCell id="autU-3Pc4H1RiV7rEtkj-5" value="" style="shape=partialRectangle;html=1;whiteSpace=wrap;connectable=0;overflow=hidden;top=0;left=0;bottom=0;right=0;pointerEvents=1;fontSize=16;fillColor=none;strokeColor=inherit;" parent="autU-3Pc4H1RiV7rEtkj-2" vertex="1">
          <mxGeometry x="95" width="48" height="40" as="geometry">
            <mxRectangle width="48" height="40" as="alternateBounds" />
          </mxGeometry>
        </mxCell>
        <mxCell id="autU-3Pc4H1RiV7rEtkj-6" value="" style="shape=partialRectangle;html=1;whiteSpace=wrap;connectable=0;strokeColor=inherit;overflow=hidden;fillColor=none;top=0;left=0;bottom=0;right=0;pointerEvents=1;fontSize=16;" parent="autU-3Pc4H1RiV7rEtkj-2" vertex="1">
          <mxGeometry x="143" width="47" height="40" as="geometry">
            <mxRectangle width="47" height="40" as="alternateBounds" />
          </mxGeometry>
        </mxCell>
        <mxCell id="autU-3Pc4H1RiV7rEtkj-7" value="" style="shape=table;startSize=0;container=1;collapsible=0;childLayout=tableLayout;fontSize=16;" parent="1" vertex="1">
          <mxGeometry x="1484" y="380" width="190" height="40" as="geometry" />
        </mxCell>
        <mxCell id="autU-3Pc4H1RiV7rEtkj-8" value="" style="shape=tableRow;horizontal=0;startSize=0;swimlaneHead=0;swimlaneBody=0;strokeColor=inherit;top=0;left=0;bottom=0;right=0;collapsible=0;dropTarget=0;fillColor=none;points=[[0,0.5],[1,0.5]];portConstraint=eastwest;fontSize=16;" parent="autU-3Pc4H1RiV7rEtkj-7" vertex="1">
          <mxGeometry width="190" height="40" as="geometry" />
        </mxCell>
        <mxCell id="autU-3Pc4H1RiV7rEtkj-9" value="91" style="shape=partialRectangle;html=1;whiteSpace=wrap;connectable=0;strokeColor=inherit;overflow=hidden;fillColor=none;top=0;left=0;bottom=0;right=0;pointerEvents=1;fontSize=16;" parent="autU-3Pc4H1RiV7rEtkj-8" vertex="1">
          <mxGeometry width="48" height="40" as="geometry">
            <mxRectangle width="48" height="40" as="alternateBounds" />
          </mxGeometry>
        </mxCell>
        <mxCell id="autU-3Pc4H1RiV7rEtkj-10" value="99" style="shape=partialRectangle;html=1;whiteSpace=wrap;connectable=0;strokeColor=inherit;overflow=hidden;fillColor=none;top=0;left=0;bottom=0;right=0;pointerEvents=1;fontSize=16;" parent="autU-3Pc4H1RiV7rEtkj-8" vertex="1">
          <mxGeometry x="48" width="47" height="40" as="geometry">
            <mxRectangle width="47" height="40" as="alternateBounds" />
          </mxGeometry>
        </mxCell>
        <mxCell id="autU-3Pc4H1RiV7rEtkj-11" value="" style="shape=partialRectangle;html=1;whiteSpace=wrap;connectable=0;overflow=hidden;top=0;left=0;bottom=0;right=0;pointerEvents=1;fontSize=16;fillColor=none;strokeColor=inherit;" parent="autU-3Pc4H1RiV7rEtkj-8" vertex="1">
          <mxGeometry x="95" width="48" height="40" as="geometry">
            <mxRectangle width="48" height="40" as="alternateBounds" />
          </mxGeometry>
        </mxCell>
        <mxCell id="autU-3Pc4H1RiV7rEtkj-12" value="" style="shape=partialRectangle;html=1;whiteSpace=wrap;connectable=0;strokeColor=inherit;overflow=hidden;fillColor=none;top=0;left=0;bottom=0;right=0;pointerEvents=1;fontSize=16;" parent="autU-3Pc4H1RiV7rEtkj-8" vertex="1">
          <mxGeometry x="143" width="47" height="40" as="geometry">
            <mxRectangle width="47" height="40" as="alternateBounds" />
          </mxGeometry>
        </mxCell>
        <mxCell id="autU-3Pc4H1RiV7rEtkj-13" value="" style="endArrow=classic;html=1;rounded=0;entryX=0.499;entryY=0;entryDx=0;entryDy=0;entryPerimeter=0;exitX=0.264;exitY=1.02;exitDx=0;exitDy=0;exitPerimeter=0;" parent="1" source="yaHPV1p2FPpM4iknY5dU-15" target="autU-3Pc4H1RiV7rEtkj-2" edge="1">
          <mxGeometry width="50" height="50" relative="1" as="geometry">
            <mxPoint x="1140" y="360" as="sourcePoint" />
            <mxPoint x="1190" y="310" as="targetPoint" />
          </mxGeometry>
        </mxCell>
        <mxCell id="autU-3Pc4H1RiV7rEtkj-14" value="" style="endArrow=classic;html=1;rounded=0;entryX=0.495;entryY=-0.04;entryDx=0;entryDy=0;entryPerimeter=0;exitX=0.494;exitY=1.02;exitDx=0;exitDy=0;exitPerimeter=0;" parent="1" source="yaHPV1p2FPpM4iknY5dU-15" target="autU-3Pc4H1RiV7rEtkj-8" edge="1">
          <mxGeometry width="50" height="50" relative="1" as="geometry">
            <mxPoint x="1140" y="360" as="sourcePoint" />
            <mxPoint x="1190" y="310" as="targetPoint" />
          </mxGeometry>
        </mxCell>
        <mxCell id="autU-3Pc4H1RiV7rEtkj-15" value="&lt;font style=&quot;font-size: 16px;&quot;&gt;Goal: Delete 27&lt;/font&gt;" style="text;html=1;strokeColor=none;fillColor=none;align=center;verticalAlign=middle;whiteSpace=wrap;rounded=0;" parent="1" vertex="1">
          <mxGeometry x="20" y="20" width="130" height="30" as="geometry" />
        </mxCell>
        <mxCell id="autU-3Pc4H1RiV7rEtkj-16" value="&lt;font style=&quot;font-size: 16px;&quot;&gt;27 &amp;lt; 50&lt;/font&gt;" style="text;html=1;strokeColor=none;fillColor=none;align=center;verticalAlign=middle;whiteSpace=wrap;rounded=0;" parent="1" vertex="1">
          <mxGeometry x="710" y="180" width="90" height="30" as="geometry" />
        </mxCell>
        <mxCell id="autU-3Pc4H1RiV7rEtkj-17" value="&lt;font style=&quot;font-size: 16px;&quot;&gt;18 &amp;lt;= 27 &amp;lt; 32&lt;/font&gt;" style="text;html=1;strokeColor=none;fillColor=none;align=center;verticalAlign=middle;whiteSpace=wrap;rounded=0;" parent="1" vertex="1">
          <mxGeometry x="480" y="330" width="120" height="30" as="geometry" />
        </mxCell>
        <mxCell id="autU-3Pc4H1RiV7rEtkj-18" value="&lt;font style=&quot;font-size: 16px;&quot;&gt;Step 1: Find the appropriate data leaf node&lt;/font&gt;" style="text;html=1;strokeColor=none;fillColor=none;align=center;verticalAlign=middle;whiteSpace=wrap;rounded=0;" parent="1" vertex="1">
          <mxGeometry x="20" y="60" width="330" height="30" as="geometry" />
        </mxCell>
        <mxCell id="autU-3Pc4H1RiV7rEtkj-115" value="&lt;font style=&quot;font-size: 16px;&quot;&gt;Step 2: If the data exists, delete the data.&lt;/font&gt;" style="text;html=1;strokeColor=none;fillColor=none;align=center;verticalAlign=middle;whiteSpace=wrap;rounded=0;" parent="1" vertex="1">
          <mxGeometry x="30" y="505" width="310" height="30" as="geometry" />
        </mxCell>
        <mxCell id="CAwmhURl8O9o6Oq5V2A1-1" value="" style="shape=table;startSize=0;container=1;collapsible=0;childLayout=tableLayout;fontSize=16;" parent="1" vertex="1">
          <mxGeometry x="400" y="760" width="267" height="40" as="geometry" />
        </mxCell>
        <mxCell id="CAwmhURl8O9o6Oq5V2A1-2" value="" style="shape=tableRow;horizontal=0;startSize=0;swimlaneHead=0;swimlaneBody=0;strokeColor=inherit;top=0;left=0;bottom=0;right=0;collapsible=0;dropTarget=0;fillColor=none;points=[[0,0.5],[1,0.5]];portConstraint=eastwest;fontSize=16;" parent="CAwmhURl8O9o6Oq5V2A1-1" vertex="1">
          <mxGeometry width="267" height="40" as="geometry" />
        </mxCell>
        <mxCell id="CAwmhURl8O9o6Oq5V2A1-3" value="" style="shape=partialRectangle;html=1;whiteSpace=wrap;connectable=0;strokeColor=inherit;overflow=hidden;fillColor=none;top=0;left=0;bottom=0;right=0;pointerEvents=1;fontSize=16;" parent="CAwmhURl8O9o6Oq5V2A1-2" vertex="1">
          <mxGeometry width="15" height="40" as="geometry">
            <mxRectangle width="15" height="40" as="alternateBounds" />
          </mxGeometry>
        </mxCell>
        <mxCell id="CAwmhURl8O9o6Oq5V2A1-4" value="8" style="shape=partialRectangle;html=1;whiteSpace=wrap;connectable=0;strokeColor=inherit;overflow=hidden;fillColor=none;top=0;left=0;bottom=0;right=0;pointerEvents=1;fontSize=16;" parent="CAwmhURl8O9o6Oq5V2A1-2" vertex="1">
          <mxGeometry x="15" width="48" height="40" as="geometry">
            <mxRectangle width="48" height="40" as="alternateBounds" />
          </mxGeometry>
        </mxCell>
        <mxCell id="CAwmhURl8O9o6Oq5V2A1-5" value="" style="shape=partialRectangle;html=1;whiteSpace=wrap;connectable=0;strokeColor=inherit;overflow=hidden;fillColor=none;top=0;left=0;bottom=0;right=0;pointerEvents=1;fontSize=16;" parent="CAwmhURl8O9o6Oq5V2A1-2" vertex="1">
          <mxGeometry x="63" width="15" height="40" as="geometry">
            <mxRectangle width="15" height="40" as="alternateBounds" />
          </mxGeometry>
        </mxCell>
        <mxCell id="CAwmhURl8O9o6Oq5V2A1-6" value="18" style="shape=partialRectangle;html=1;whiteSpace=wrap;connectable=0;strokeColor=inherit;overflow=hidden;fillColor=none;top=0;left=0;bottom=0;right=0;pointerEvents=1;fontSize=16;" parent="CAwmhURl8O9o6Oq5V2A1-2" vertex="1">
          <mxGeometry x="78" width="48" height="40" as="geometry">
            <mxRectangle width="48" height="40" as="alternateBounds" />
          </mxGeometry>
        </mxCell>
        <mxCell id="CAwmhURl8O9o6Oq5V2A1-7" style="shape=partialRectangle;html=1;whiteSpace=wrap;connectable=0;strokeColor=inherit;overflow=hidden;fillColor=none;top=0;left=0;bottom=0;right=0;pointerEvents=1;fontSize=16;" parent="CAwmhURl8O9o6Oq5V2A1-2" vertex="1">
          <mxGeometry x="126" width="15" height="40" as="geometry">
            <mxRectangle width="15" height="40" as="alternateBounds" />
          </mxGeometry>
        </mxCell>
        <mxCell id="CAwmhURl8O9o6Oq5V2A1-8" value="32" style="shape=partialRectangle;html=1;whiteSpace=wrap;connectable=0;strokeColor=inherit;overflow=hidden;fillColor=none;top=0;left=0;bottom=0;right=0;pointerEvents=1;fontSize=16;" parent="CAwmhURl8O9o6Oq5V2A1-2" vertex="1">
          <mxGeometry x="141" width="48" height="40" as="geometry">
            <mxRectangle width="48" height="40" as="alternateBounds" />
          </mxGeometry>
        </mxCell>
        <mxCell id="CAwmhURl8O9o6Oq5V2A1-9" style="shape=partialRectangle;html=1;whiteSpace=wrap;connectable=0;strokeColor=inherit;overflow=hidden;fillColor=none;top=0;left=0;bottom=0;right=0;pointerEvents=1;fontSize=16;" parent="CAwmhURl8O9o6Oq5V2A1-2" vertex="1">
          <mxGeometry x="189" width="15" height="40" as="geometry">
            <mxRectangle width="15" height="40" as="alternateBounds" />
          </mxGeometry>
        </mxCell>
        <mxCell id="CAwmhURl8O9o6Oq5V2A1-10" value="40" style="shape=partialRectangle;html=1;whiteSpace=wrap;connectable=0;strokeColor=inherit;overflow=hidden;fillColor=none;top=0;left=0;bottom=0;right=0;pointerEvents=1;fontSize=16;" parent="CAwmhURl8O9o6Oq5V2A1-2" vertex="1">
          <mxGeometry x="204" width="48" height="40" as="geometry">
            <mxRectangle width="48" height="40" as="alternateBounds" />
          </mxGeometry>
        </mxCell>
        <mxCell id="CAwmhURl8O9o6Oq5V2A1-11" style="shape=partialRectangle;html=1;whiteSpace=wrap;connectable=0;strokeColor=inherit;overflow=hidden;fillColor=none;top=0;left=0;bottom=0;right=0;pointerEvents=1;fontSize=16;" parent="CAwmhURl8O9o6Oq5V2A1-2" vertex="1">
          <mxGeometry x="252" width="15" height="40" as="geometry">
            <mxRectangle width="15" height="40" as="alternateBounds" />
          </mxGeometry>
        </mxCell>
        <mxCell id="CAwmhURl8O9o6Oq5V2A1-12" value="" style="shape=table;startSize=0;container=1;collapsible=0;childLayout=tableLayout;fontSize=16;" parent="1" vertex="1">
          <mxGeometry x="20" y="880" width="190" height="40" as="geometry" />
        </mxCell>
        <mxCell id="CAwmhURl8O9o6Oq5V2A1-13" value="" style="shape=tableRow;horizontal=0;startSize=0;swimlaneHead=0;swimlaneBody=0;strokeColor=inherit;top=0;left=0;bottom=0;right=0;collapsible=0;dropTarget=0;fillColor=none;points=[[0,0.5],[1,0.5]];portConstraint=eastwest;fontSize=16;" parent="CAwmhURl8O9o6Oq5V2A1-12" vertex="1">
          <mxGeometry width="190" height="40" as="geometry" />
        </mxCell>
        <mxCell id="CAwmhURl8O9o6Oq5V2A1-14" value="1" style="shape=partialRectangle;html=1;whiteSpace=wrap;connectable=0;strokeColor=inherit;overflow=hidden;fillColor=none;top=0;left=0;bottom=0;right=0;pointerEvents=1;fontSize=16;" parent="CAwmhURl8O9o6Oq5V2A1-13" vertex="1">
          <mxGeometry width="48" height="40" as="geometry">
            <mxRectangle width="48" height="40" as="alternateBounds" />
          </mxGeometry>
        </mxCell>
        <mxCell id="CAwmhURl8O9o6Oq5V2A1-15" value="2" style="shape=partialRectangle;html=1;whiteSpace=wrap;connectable=0;strokeColor=inherit;overflow=hidden;fillColor=none;top=0;left=0;bottom=0;right=0;pointerEvents=1;fontSize=16;" parent="CAwmhURl8O9o6Oq5V2A1-13" vertex="1">
          <mxGeometry x="48" width="47" height="40" as="geometry">
            <mxRectangle width="47" height="40" as="alternateBounds" />
          </mxGeometry>
        </mxCell>
        <mxCell id="CAwmhURl8O9o6Oq5V2A1-16" value="5" style="shape=partialRectangle;html=1;whiteSpace=wrap;connectable=0;overflow=hidden;top=0;left=0;bottom=0;right=0;pointerEvents=1;fontSize=16;fillColor=none;strokeColor=inherit;" parent="CAwmhURl8O9o6Oq5V2A1-13" vertex="1">
          <mxGeometry x="95" width="48" height="40" as="geometry">
            <mxRectangle width="48" height="40" as="alternateBounds" />
          </mxGeometry>
        </mxCell>
        <mxCell id="CAwmhURl8O9o6Oq5V2A1-17" value="6" style="shape=partialRectangle;html=1;whiteSpace=wrap;connectable=0;strokeColor=inherit;overflow=hidden;fillColor=none;top=0;left=0;bottom=0;right=0;pointerEvents=1;fontSize=16;" parent="CAwmhURl8O9o6Oq5V2A1-13" vertex="1">
          <mxGeometry x="143" width="47" height="40" as="geometry">
            <mxRectangle width="47" height="40" as="alternateBounds" />
          </mxGeometry>
        </mxCell>
        <mxCell id="CAwmhURl8O9o6Oq5V2A1-18" value="" style="endArrow=classic;html=1;rounded=0;exitX=0.027;exitY=0.992;exitDx=0;exitDy=0;exitPerimeter=0;entryX=0.497;entryY=0.012;entryDx=0;entryDy=0;entryPerimeter=0;strokeWidth=1;" parent="1" source="CAwmhURl8O9o6Oq5V2A1-2" target="CAwmhURl8O9o6Oq5V2A1-13" edge="1">
          <mxGeometry width="50" height="50" relative="1" as="geometry">
            <mxPoint x="340" y="1070" as="sourcePoint" />
            <mxPoint x="390" y="1020" as="targetPoint" />
          </mxGeometry>
        </mxCell>
        <mxCell id="CAwmhURl8O9o6Oq5V2A1-19" value="&lt;font style=&quot;font-size: 16px;&quot;&gt;Root&lt;/font&gt;" style="rounded=0;whiteSpace=wrap;html=1;" parent="1" vertex="1">
          <mxGeometry x="1048.5" y="560" width="50" height="40" as="geometry" />
        </mxCell>
        <mxCell id="CAwmhURl8O9o6Oq5V2A1-20" value="" style="shape=table;startSize=0;container=1;collapsible=0;childLayout=tableLayout;fontSize=16;" parent="1" vertex="1">
          <mxGeometry x="440" y="880" width="190" height="40" as="geometry" />
        </mxCell>
        <mxCell id="CAwmhURl8O9o6Oq5V2A1-21" value="" style="shape=tableRow;horizontal=0;startSize=0;swimlaneHead=0;swimlaneBody=0;strokeColor=inherit;top=0;left=0;bottom=0;right=0;collapsible=0;dropTarget=0;fillColor=none;points=[[0,0.5],[1,0.5]];portConstraint=eastwest;fontSize=16;" parent="CAwmhURl8O9o6Oq5V2A1-20" vertex="1">
          <mxGeometry width="190" height="40" as="geometry" />
        </mxCell>
        <mxCell id="CAwmhURl8O9o6Oq5V2A1-22" value="18" style="shape=partialRectangle;html=1;whiteSpace=wrap;connectable=0;strokeColor=inherit;overflow=hidden;fillColor=none;top=0;left=0;bottom=0;right=0;pointerEvents=1;fontSize=16;" parent="CAwmhURl8O9o6Oq5V2A1-21" vertex="1">
          <mxGeometry width="48" height="40" as="geometry">
            <mxRectangle width="48" height="40" as="alternateBounds" />
          </mxGeometry>
        </mxCell>
        <mxCell id="CAwmhURl8O9o6Oq5V2A1-23" value="29" style="shape=partialRectangle;html=1;whiteSpace=wrap;connectable=0;strokeColor=inherit;overflow=hidden;fillColor=none;top=0;left=0;bottom=0;right=0;pointerEvents=1;fontSize=16;" parent="CAwmhURl8O9o6Oq5V2A1-21" vertex="1">
          <mxGeometry x="48" width="47" height="40" as="geometry">
            <mxRectangle width="47" height="40" as="alternateBounds" />
          </mxGeometry>
        </mxCell>
        <mxCell id="CAwmhURl8O9o6Oq5V2A1-24" value="30" style="shape=partialRectangle;html=1;whiteSpace=wrap;connectable=0;overflow=hidden;top=0;left=0;bottom=0;right=0;pointerEvents=1;fontSize=16;fillColor=none;strokeColor=inherit;" parent="CAwmhURl8O9o6Oq5V2A1-21" vertex="1">
          <mxGeometry x="95" width="48" height="40" as="geometry">
            <mxRectangle width="48" height="40" as="alternateBounds" />
          </mxGeometry>
        </mxCell>
        <mxCell id="CAwmhURl8O9o6Oq5V2A1-25" value="" style="shape=partialRectangle;html=1;whiteSpace=wrap;connectable=0;strokeColor=inherit;overflow=hidden;fillColor=none;top=0;left=0;bottom=0;right=0;pointerEvents=1;fontSize=16;" parent="CAwmhURl8O9o6Oq5V2A1-21" vertex="1">
          <mxGeometry x="143" width="47" height="40" as="geometry">
            <mxRectangle width="47" height="40" as="alternateBounds" />
          </mxGeometry>
        </mxCell>
        <mxCell id="CAwmhURl8O9o6Oq5V2A1-26" value="" style="shape=table;startSize=0;container=1;collapsible=0;childLayout=tableLayout;fontSize=16;" parent="1" vertex="1">
          <mxGeometry x="650" y="880" width="190" height="40" as="geometry" />
        </mxCell>
        <mxCell id="CAwmhURl8O9o6Oq5V2A1-27" value="" style="shape=tableRow;horizontal=0;startSize=0;swimlaneHead=0;swimlaneBody=0;strokeColor=inherit;top=0;left=0;bottom=0;right=0;collapsible=0;dropTarget=0;fillColor=none;points=[[0,0.5],[1,0.5]];portConstraint=eastwest;fontSize=16;" parent="CAwmhURl8O9o6Oq5V2A1-26" vertex="1">
          <mxGeometry width="190" height="40" as="geometry" />
        </mxCell>
        <mxCell id="CAwmhURl8O9o6Oq5V2A1-28" value="32" style="shape=partialRectangle;html=1;whiteSpace=wrap;connectable=0;strokeColor=inherit;overflow=hidden;fillColor=none;top=0;left=0;bottom=0;right=0;pointerEvents=1;fontSize=16;" parent="CAwmhURl8O9o6Oq5V2A1-27" vertex="1">
          <mxGeometry width="48" height="40" as="geometry">
            <mxRectangle width="48" height="40" as="alternateBounds" />
          </mxGeometry>
        </mxCell>
        <mxCell id="CAwmhURl8O9o6Oq5V2A1-29" value="39" style="shape=partialRectangle;html=1;whiteSpace=wrap;connectable=0;strokeColor=inherit;overflow=hidden;fillColor=none;top=0;left=0;bottom=0;right=0;pointerEvents=1;fontSize=16;" parent="CAwmhURl8O9o6Oq5V2A1-27" vertex="1">
          <mxGeometry x="48" width="47" height="40" as="geometry">
            <mxRectangle width="47" height="40" as="alternateBounds" />
          </mxGeometry>
        </mxCell>
        <mxCell id="CAwmhURl8O9o6Oq5V2A1-30" value="" style="shape=partialRectangle;html=1;whiteSpace=wrap;connectable=0;overflow=hidden;top=0;left=0;bottom=0;right=0;pointerEvents=1;fontSize=16;fillColor=none;strokeColor=inherit;" parent="CAwmhURl8O9o6Oq5V2A1-27" vertex="1">
          <mxGeometry x="95" width="48" height="40" as="geometry">
            <mxRectangle width="48" height="40" as="alternateBounds" />
          </mxGeometry>
        </mxCell>
        <mxCell id="CAwmhURl8O9o6Oq5V2A1-31" value="" style="shape=partialRectangle;html=1;whiteSpace=wrap;connectable=0;strokeColor=inherit;overflow=hidden;fillColor=none;top=0;left=0;bottom=0;right=0;pointerEvents=1;fontSize=16;" parent="CAwmhURl8O9o6Oq5V2A1-27" vertex="1">
          <mxGeometry x="143" width="47" height="40" as="geometry">
            <mxRectangle width="47" height="40" as="alternateBounds" />
          </mxGeometry>
        </mxCell>
        <mxCell id="CAwmhURl8O9o6Oq5V2A1-32" value="" style="shape=table;startSize=0;container=1;collapsible=0;childLayout=tableLayout;fontSize=16;" parent="1" vertex="1">
          <mxGeometry x="860" y="880" width="190" height="40" as="geometry" />
        </mxCell>
        <mxCell id="CAwmhURl8O9o6Oq5V2A1-33" value="" style="shape=tableRow;horizontal=0;startSize=0;swimlaneHead=0;swimlaneBody=0;strokeColor=inherit;top=0;left=0;bottom=0;right=0;collapsible=0;dropTarget=0;fillColor=none;points=[[0,0.5],[1,0.5]];portConstraint=eastwest;fontSize=16;" parent="CAwmhURl8O9o6Oq5V2A1-32" vertex="1">
          <mxGeometry width="190" height="40" as="geometry" />
        </mxCell>
        <mxCell id="CAwmhURl8O9o6Oq5V2A1-34" value="41" style="shape=partialRectangle;html=1;whiteSpace=wrap;connectable=0;strokeColor=inherit;overflow=hidden;fillColor=none;top=0;left=0;bottom=0;right=0;pointerEvents=1;fontSize=16;" parent="CAwmhURl8O9o6Oq5V2A1-33" vertex="1">
          <mxGeometry width="48" height="40" as="geometry">
            <mxRectangle width="48" height="40" as="alternateBounds" />
          </mxGeometry>
        </mxCell>
        <mxCell id="CAwmhURl8O9o6Oq5V2A1-35" value="45" style="shape=partialRectangle;html=1;whiteSpace=wrap;connectable=0;strokeColor=inherit;overflow=hidden;fillColor=none;top=0;left=0;bottom=0;right=0;pointerEvents=1;fontSize=16;" parent="CAwmhURl8O9o6Oq5V2A1-33" vertex="1">
          <mxGeometry x="48" width="47" height="40" as="geometry">
            <mxRectangle width="47" height="40" as="alternateBounds" />
          </mxGeometry>
        </mxCell>
        <mxCell id="CAwmhURl8O9o6Oq5V2A1-36" value="" style="shape=partialRectangle;html=1;whiteSpace=wrap;connectable=0;overflow=hidden;top=0;left=0;bottom=0;right=0;pointerEvents=1;fontSize=16;fillColor=none;strokeColor=inherit;" parent="CAwmhURl8O9o6Oq5V2A1-33" vertex="1">
          <mxGeometry x="95" width="48" height="40" as="geometry">
            <mxRectangle width="48" height="40" as="alternateBounds" />
          </mxGeometry>
        </mxCell>
        <mxCell id="CAwmhURl8O9o6Oq5V2A1-37" value="" style="shape=partialRectangle;html=1;whiteSpace=wrap;connectable=0;strokeColor=inherit;overflow=hidden;fillColor=none;top=0;left=0;bottom=0;right=0;pointerEvents=1;fontSize=16;" parent="CAwmhURl8O9o6Oq5V2A1-33" vertex="1">
          <mxGeometry x="143" width="47" height="40" as="geometry">
            <mxRectangle width="47" height="40" as="alternateBounds" />
          </mxGeometry>
        </mxCell>
        <mxCell id="CAwmhURl8O9o6Oq5V2A1-38" value="" style="shape=table;startSize=0;container=1;collapsible=0;childLayout=tableLayout;fontSize=16;" parent="1" vertex="1">
          <mxGeometry x="230" y="880" width="190" height="40" as="geometry" />
        </mxCell>
        <mxCell id="CAwmhURl8O9o6Oq5V2A1-39" value="" style="shape=tableRow;horizontal=0;startSize=0;swimlaneHead=0;swimlaneBody=0;strokeColor=inherit;top=0;left=0;bottom=0;right=0;collapsible=0;dropTarget=0;fillColor=none;points=[[0,0.5],[1,0.5]];portConstraint=eastwest;fontSize=16;" parent="CAwmhURl8O9o6Oq5V2A1-38" vertex="1">
          <mxGeometry width="190" height="40" as="geometry" />
        </mxCell>
        <mxCell id="CAwmhURl8O9o6Oq5V2A1-40" value="8" style="shape=partialRectangle;html=1;whiteSpace=wrap;connectable=0;strokeColor=inherit;overflow=hidden;fillColor=none;top=0;left=0;bottom=0;right=0;pointerEvents=1;fontSize=16;" parent="CAwmhURl8O9o6Oq5V2A1-39" vertex="1">
          <mxGeometry width="48" height="40" as="geometry">
            <mxRectangle width="48" height="40" as="alternateBounds" />
          </mxGeometry>
        </mxCell>
        <mxCell id="CAwmhURl8O9o6Oq5V2A1-41" value="10" style="shape=partialRectangle;html=1;whiteSpace=wrap;connectable=0;strokeColor=inherit;overflow=hidden;fillColor=none;top=0;left=0;bottom=0;right=0;pointerEvents=1;fontSize=16;" parent="CAwmhURl8O9o6Oq5V2A1-39" vertex="1">
          <mxGeometry x="48" width="47" height="40" as="geometry">
            <mxRectangle width="47" height="40" as="alternateBounds" />
          </mxGeometry>
        </mxCell>
        <mxCell id="CAwmhURl8O9o6Oq5V2A1-42" value="" style="shape=partialRectangle;html=1;whiteSpace=wrap;connectable=0;overflow=hidden;top=0;left=0;bottom=0;right=0;pointerEvents=1;fontSize=16;fillColor=none;strokeColor=inherit;" parent="CAwmhURl8O9o6Oq5V2A1-39" vertex="1">
          <mxGeometry x="95" width="48" height="40" as="geometry">
            <mxRectangle width="48" height="40" as="alternateBounds" />
          </mxGeometry>
        </mxCell>
        <mxCell id="CAwmhURl8O9o6Oq5V2A1-43" value="" style="shape=partialRectangle;html=1;whiteSpace=wrap;connectable=0;strokeColor=inherit;overflow=hidden;fillColor=none;top=0;left=0;bottom=0;right=0;pointerEvents=1;fontSize=16;" parent="CAwmhURl8O9o6Oq5V2A1-39" vertex="1">
          <mxGeometry x="143" width="47" height="40" as="geometry">
            <mxRectangle width="47" height="40" as="alternateBounds" />
          </mxGeometry>
        </mxCell>
        <mxCell id="CAwmhURl8O9o6Oq5V2A1-44" value="" style="endArrow=classic;html=1;rounded=0;entryX=0.498;entryY=0.012;entryDx=0;entryDy=0;entryPerimeter=0;exitX=0.265;exitY=1.015;exitDx=0;exitDy=0;exitPerimeter=0;" parent="1" source="CAwmhURl8O9o6Oq5V2A1-2" target="CAwmhURl8O9o6Oq5V2A1-39" edge="1">
          <mxGeometry width="50" height="50" relative="1" as="geometry">
            <mxPoint x="480" y="890" as="sourcePoint" />
            <mxPoint x="530" y="840" as="targetPoint" />
          </mxGeometry>
        </mxCell>
        <mxCell id="CAwmhURl8O9o6Oq5V2A1-45" value="" style="endArrow=classic;html=1;rounded=0;exitX=0.502;exitY=0.995;exitDx=0;exitDy=0;exitPerimeter=0;entryX=0.496;entryY=-0.028;entryDx=0;entryDy=0;entryPerimeter=0;strokeWidth=4;" parent="1" source="CAwmhURl8O9o6Oq5V2A1-2" target="CAwmhURl8O9o6Oq5V2A1-21" edge="1">
          <mxGeometry width="50" height="50" relative="1" as="geometry">
            <mxPoint x="430" y="880" as="sourcePoint" />
            <mxPoint x="540" y="870" as="targetPoint" />
          </mxGeometry>
        </mxCell>
        <mxCell id="CAwmhURl8O9o6Oq5V2A1-46" value="" style="endArrow=classic;html=1;rounded=0;exitX=0.74;exitY=0.98;exitDx=0;exitDy=0;exitPerimeter=0;entryX=0.499;entryY=-0.015;entryDx=0;entryDy=0;entryPerimeter=0;strokeWidth=1;" parent="1" source="CAwmhURl8O9o6Oq5V2A1-2" target="CAwmhURl8O9o6Oq5V2A1-27" edge="1">
          <mxGeometry width="50" height="50" relative="1" as="geometry">
            <mxPoint x="680" y="880" as="sourcePoint" />
            <mxPoint x="730" y="830" as="targetPoint" />
          </mxGeometry>
        </mxCell>
        <mxCell id="CAwmhURl8O9o6Oq5V2A1-47" value="" style="endArrow=classic;html=1;rounded=0;exitX=0.968;exitY=0.98;exitDx=0;exitDy=0;exitPerimeter=0;entryX=0.501;entryY=-0.008;entryDx=0;entryDy=0;entryPerimeter=0;strokeWidth=1;" parent="1" source="CAwmhURl8O9o6Oq5V2A1-2" target="CAwmhURl8O9o6Oq5V2A1-33" edge="1">
          <mxGeometry width="50" height="50" relative="1" as="geometry">
            <mxPoint x="680" y="880" as="sourcePoint" />
            <mxPoint x="860" y="870" as="targetPoint" />
          </mxGeometry>
        </mxCell>
        <mxCell id="CAwmhURl8O9o6Oq5V2A1-48" value="" style="shape=table;startSize=0;container=1;collapsible=0;childLayout=tableLayout;fontSize=16;" parent="1" vertex="1">
          <mxGeometry x="1070" y="880" width="190" height="40" as="geometry" />
        </mxCell>
        <mxCell id="CAwmhURl8O9o6Oq5V2A1-49" value="" style="shape=tableRow;horizontal=0;startSize=0;swimlaneHead=0;swimlaneBody=0;strokeColor=inherit;top=0;left=0;bottom=0;right=0;collapsible=0;dropTarget=0;fillColor=none;points=[[0,0.5],[1,0.5]];portConstraint=eastwest;fontSize=16;" parent="CAwmhURl8O9o6Oq5V2A1-48" vertex="1">
          <mxGeometry width="190" height="40" as="geometry" />
        </mxCell>
        <mxCell id="CAwmhURl8O9o6Oq5V2A1-50" value="52" style="shape=partialRectangle;html=1;whiteSpace=wrap;connectable=0;strokeColor=inherit;overflow=hidden;fillColor=none;top=0;left=0;bottom=0;right=0;pointerEvents=1;fontSize=16;" parent="CAwmhURl8O9o6Oq5V2A1-49" vertex="1">
          <mxGeometry width="48" height="40" as="geometry">
            <mxRectangle width="48" height="40" as="alternateBounds" />
          </mxGeometry>
        </mxCell>
        <mxCell id="CAwmhURl8O9o6Oq5V2A1-51" value="58" style="shape=partialRectangle;html=1;whiteSpace=wrap;connectable=0;strokeColor=inherit;overflow=hidden;fillColor=none;top=0;left=0;bottom=0;right=0;pointerEvents=1;fontSize=16;" parent="CAwmhURl8O9o6Oq5V2A1-49" vertex="1">
          <mxGeometry x="48" width="47" height="40" as="geometry">
            <mxRectangle width="47" height="40" as="alternateBounds" />
          </mxGeometry>
        </mxCell>
        <mxCell id="CAwmhURl8O9o6Oq5V2A1-52" value="" style="shape=partialRectangle;html=1;whiteSpace=wrap;connectable=0;overflow=hidden;top=0;left=0;bottom=0;right=0;pointerEvents=1;fontSize=16;fillColor=none;strokeColor=inherit;" parent="CAwmhURl8O9o6Oq5V2A1-49" vertex="1">
          <mxGeometry x="95" width="48" height="40" as="geometry">
            <mxRectangle width="48" height="40" as="alternateBounds" />
          </mxGeometry>
        </mxCell>
        <mxCell id="CAwmhURl8O9o6Oq5V2A1-53" value="" style="shape=partialRectangle;html=1;whiteSpace=wrap;connectable=0;strokeColor=inherit;overflow=hidden;fillColor=none;top=0;left=0;bottom=0;right=0;pointerEvents=1;fontSize=16;" parent="CAwmhURl8O9o6Oq5V2A1-49" vertex="1">
          <mxGeometry x="143" width="47" height="40" as="geometry">
            <mxRectangle width="47" height="40" as="alternateBounds" />
          </mxGeometry>
        </mxCell>
        <mxCell id="CAwmhURl8O9o6Oq5V2A1-54" value="" style="endArrow=classic;html=1;rounded=0;exitX=0.024;exitY=1.02;exitDx=0;exitDy=0;exitPerimeter=0;entryX=0.617;entryY=-0.045;entryDx=0;entryDy=0;entryPerimeter=0;strokeWidth=1;" parent="1" source="CAwmhURl8O9o6Oq5V2A1-69" target="CAwmhURl8O9o6Oq5V2A1-49" edge="1">
          <mxGeometry width="50" height="50" relative="1" as="geometry">
            <mxPoint x="639" y="850" as="sourcePoint" />
            <mxPoint x="965" y="890" as="targetPoint" />
          </mxGeometry>
        </mxCell>
        <mxCell id="CAwmhURl8O9o6Oq5V2A1-55" value="" style="endArrow=classic;html=1;rounded=0;entryX=0.5;entryY=0.035;entryDx=0;entryDy=0;entryPerimeter=0;exitX=0.5;exitY=1;exitDx=0;exitDy=0;" parent="1" source="CAwmhURl8O9o6Oq5V2A1-19" target="CAwmhURl8O9o6Oq5V2A1-57" edge="1">
          <mxGeometry width="50" height="50" relative="1" as="geometry">
            <mxPoint x="747" y="750" as="sourcePoint" />
            <mxPoint x="797" y="700" as="targetPoint" />
          </mxGeometry>
        </mxCell>
        <mxCell id="CAwmhURl8O9o6Oq5V2A1-56" value="" style="shape=table;startSize=0;container=1;collapsible=0;childLayout=tableLayout;fontSize=16;" parent="1" vertex="1">
          <mxGeometry x="940" y="640" width="267" height="40" as="geometry" />
        </mxCell>
        <mxCell id="CAwmhURl8O9o6Oq5V2A1-57" value="" style="shape=tableRow;horizontal=0;startSize=0;swimlaneHead=0;swimlaneBody=0;strokeColor=inherit;top=0;left=0;bottom=0;right=0;collapsible=0;dropTarget=0;fillColor=none;points=[[0,0.5],[1,0.5]];portConstraint=eastwest;fontSize=16;" parent="CAwmhURl8O9o6Oq5V2A1-56" vertex="1">
          <mxGeometry width="267" height="40" as="geometry" />
        </mxCell>
        <mxCell id="CAwmhURl8O9o6Oq5V2A1-58" value="" style="shape=partialRectangle;html=1;whiteSpace=wrap;connectable=0;strokeColor=inherit;overflow=hidden;fillColor=none;top=0;left=0;bottom=0;right=0;pointerEvents=1;fontSize=16;" parent="CAwmhURl8O9o6Oq5V2A1-57" vertex="1">
          <mxGeometry width="15" height="40" as="geometry">
            <mxRectangle width="15" height="40" as="alternateBounds" />
          </mxGeometry>
        </mxCell>
        <mxCell id="CAwmhURl8O9o6Oq5V2A1-59" value="50" style="shape=partialRectangle;html=1;whiteSpace=wrap;connectable=0;strokeColor=inherit;overflow=hidden;fillColor=none;top=0;left=0;bottom=0;right=0;pointerEvents=1;fontSize=16;" parent="CAwmhURl8O9o6Oq5V2A1-57" vertex="1">
          <mxGeometry x="15" width="48" height="40" as="geometry">
            <mxRectangle width="48" height="40" as="alternateBounds" />
          </mxGeometry>
        </mxCell>
        <mxCell id="CAwmhURl8O9o6Oq5V2A1-60" value="" style="shape=partialRectangle;html=1;whiteSpace=wrap;connectable=0;strokeColor=inherit;overflow=hidden;fillColor=none;top=0;left=0;bottom=0;right=0;pointerEvents=1;fontSize=16;" parent="CAwmhURl8O9o6Oq5V2A1-57" vertex="1">
          <mxGeometry x="63" width="15" height="40" as="geometry">
            <mxRectangle width="15" height="40" as="alternateBounds" />
          </mxGeometry>
        </mxCell>
        <mxCell id="CAwmhURl8O9o6Oq5V2A1-61" value="" style="shape=partialRectangle;html=1;whiteSpace=wrap;connectable=0;strokeColor=inherit;overflow=hidden;fillColor=none;top=0;left=0;bottom=0;right=0;pointerEvents=1;fontSize=16;" parent="CAwmhURl8O9o6Oq5V2A1-57" vertex="1">
          <mxGeometry x="78" width="48" height="40" as="geometry">
            <mxRectangle width="48" height="40" as="alternateBounds" />
          </mxGeometry>
        </mxCell>
        <mxCell id="CAwmhURl8O9o6Oq5V2A1-62" style="shape=partialRectangle;html=1;whiteSpace=wrap;connectable=0;strokeColor=inherit;overflow=hidden;fillColor=none;top=0;left=0;bottom=0;right=0;pointerEvents=1;fontSize=16;" parent="CAwmhURl8O9o6Oq5V2A1-57" vertex="1">
          <mxGeometry x="126" width="15" height="40" as="geometry">
            <mxRectangle width="15" height="40" as="alternateBounds" />
          </mxGeometry>
        </mxCell>
        <mxCell id="CAwmhURl8O9o6Oq5V2A1-63" value="" style="shape=partialRectangle;html=1;whiteSpace=wrap;connectable=0;strokeColor=inherit;overflow=hidden;fillColor=none;top=0;left=0;bottom=0;right=0;pointerEvents=1;fontSize=16;" parent="CAwmhURl8O9o6Oq5V2A1-57" vertex="1">
          <mxGeometry x="141" width="48" height="40" as="geometry">
            <mxRectangle width="48" height="40" as="alternateBounds" />
          </mxGeometry>
        </mxCell>
        <mxCell id="CAwmhURl8O9o6Oq5V2A1-64" style="shape=partialRectangle;html=1;whiteSpace=wrap;connectable=0;strokeColor=inherit;overflow=hidden;fillColor=none;top=0;left=0;bottom=0;right=0;pointerEvents=1;fontSize=16;" parent="CAwmhURl8O9o6Oq5V2A1-57" vertex="1">
          <mxGeometry x="189" width="15" height="40" as="geometry">
            <mxRectangle width="15" height="40" as="alternateBounds" />
          </mxGeometry>
        </mxCell>
        <mxCell id="CAwmhURl8O9o6Oq5V2A1-65" value="" style="shape=partialRectangle;html=1;whiteSpace=wrap;connectable=0;strokeColor=inherit;overflow=hidden;fillColor=none;top=0;left=0;bottom=0;right=0;pointerEvents=1;fontSize=16;" parent="CAwmhURl8O9o6Oq5V2A1-57" vertex="1">
          <mxGeometry x="204" width="48" height="40" as="geometry">
            <mxRectangle width="48" height="40" as="alternateBounds" />
          </mxGeometry>
        </mxCell>
        <mxCell id="CAwmhURl8O9o6Oq5V2A1-66" style="shape=partialRectangle;html=1;whiteSpace=wrap;connectable=0;strokeColor=inherit;overflow=hidden;fillColor=none;top=0;left=0;bottom=0;right=0;pointerEvents=1;fontSize=16;" parent="CAwmhURl8O9o6Oq5V2A1-57" vertex="1">
          <mxGeometry x="252" width="15" height="40" as="geometry">
            <mxRectangle width="15" height="40" as="alternateBounds" />
          </mxGeometry>
        </mxCell>
        <mxCell id="CAwmhURl8O9o6Oq5V2A1-67" value="" style="endArrow=classic;html=1;rounded=0;exitX=0.027;exitY=0.995;exitDx=0;exitDy=0;exitPerimeter=0;entryX=0.505;entryY=-0.005;entryDx=0;entryDy=0;entryPerimeter=0;strokeWidth=4;" parent="1" source="CAwmhURl8O9o6Oq5V2A1-57" target="CAwmhURl8O9o6Oq5V2A1-2" edge="1">
          <mxGeometry width="50" height="50" relative="1" as="geometry">
            <mxPoint x="1000" y="710" as="sourcePoint" />
            <mxPoint x="1050" y="660" as="targetPoint" />
          </mxGeometry>
        </mxCell>
        <mxCell id="CAwmhURl8O9o6Oq5V2A1-68" value="" style="shape=table;startSize=0;container=1;collapsible=0;childLayout=tableLayout;fontSize=16;" parent="1" vertex="1">
          <mxGeometry x="1300" y="760" width="267" height="40" as="geometry" />
        </mxCell>
        <mxCell id="CAwmhURl8O9o6Oq5V2A1-69" value="" style="shape=tableRow;horizontal=0;startSize=0;swimlaneHead=0;swimlaneBody=0;strokeColor=inherit;top=0;left=0;bottom=0;right=0;collapsible=0;dropTarget=0;fillColor=none;points=[[0,0.5],[1,0.5]];portConstraint=eastwest;fontSize=16;" parent="CAwmhURl8O9o6Oq5V2A1-68" vertex="1">
          <mxGeometry width="267" height="40" as="geometry" />
        </mxCell>
        <mxCell id="CAwmhURl8O9o6Oq5V2A1-70" value="" style="shape=partialRectangle;html=1;whiteSpace=wrap;connectable=0;strokeColor=inherit;overflow=hidden;fillColor=none;top=0;left=0;bottom=0;right=0;pointerEvents=1;fontSize=16;" parent="CAwmhURl8O9o6Oq5V2A1-69" vertex="1">
          <mxGeometry width="15" height="40" as="geometry">
            <mxRectangle width="15" height="40" as="alternateBounds" />
          </mxGeometry>
        </mxCell>
        <mxCell id="CAwmhURl8O9o6Oq5V2A1-71" value="73" style="shape=partialRectangle;html=1;whiteSpace=wrap;connectable=0;strokeColor=inherit;overflow=hidden;fillColor=none;top=0;left=0;bottom=0;right=0;pointerEvents=1;fontSize=16;" parent="CAwmhURl8O9o6Oq5V2A1-69" vertex="1">
          <mxGeometry x="15" width="48" height="40" as="geometry">
            <mxRectangle width="48" height="40" as="alternateBounds" />
          </mxGeometry>
        </mxCell>
        <mxCell id="CAwmhURl8O9o6Oq5V2A1-72" value="" style="shape=partialRectangle;html=1;whiteSpace=wrap;connectable=0;strokeColor=inherit;overflow=hidden;fillColor=none;top=0;left=0;bottom=0;right=0;pointerEvents=1;fontSize=16;" parent="CAwmhURl8O9o6Oq5V2A1-69" vertex="1">
          <mxGeometry x="63" width="15" height="40" as="geometry">
            <mxRectangle width="15" height="40" as="alternateBounds" />
          </mxGeometry>
        </mxCell>
        <mxCell id="CAwmhURl8O9o6Oq5V2A1-73" value="85" style="shape=partialRectangle;html=1;whiteSpace=wrap;connectable=0;strokeColor=inherit;overflow=hidden;fillColor=none;top=0;left=0;bottom=0;right=0;pointerEvents=1;fontSize=16;" parent="CAwmhURl8O9o6Oq5V2A1-69" vertex="1">
          <mxGeometry x="78" width="48" height="40" as="geometry">
            <mxRectangle width="48" height="40" as="alternateBounds" />
          </mxGeometry>
        </mxCell>
        <mxCell id="CAwmhURl8O9o6Oq5V2A1-74" style="shape=partialRectangle;html=1;whiteSpace=wrap;connectable=0;strokeColor=inherit;overflow=hidden;fillColor=none;top=0;left=0;bottom=0;right=0;pointerEvents=1;fontSize=16;" parent="CAwmhURl8O9o6Oq5V2A1-69" vertex="1">
          <mxGeometry x="126" width="15" height="40" as="geometry">
            <mxRectangle width="15" height="40" as="alternateBounds" />
          </mxGeometry>
        </mxCell>
        <mxCell id="CAwmhURl8O9o6Oq5V2A1-75" value="" style="shape=partialRectangle;html=1;whiteSpace=wrap;connectable=0;strokeColor=inherit;overflow=hidden;fillColor=none;top=0;left=0;bottom=0;right=0;pointerEvents=1;fontSize=16;" parent="CAwmhURl8O9o6Oq5V2A1-69" vertex="1">
          <mxGeometry x="141" width="48" height="40" as="geometry">
            <mxRectangle width="48" height="40" as="alternateBounds" />
          </mxGeometry>
        </mxCell>
        <mxCell id="CAwmhURl8O9o6Oq5V2A1-76" style="shape=partialRectangle;html=1;whiteSpace=wrap;connectable=0;strokeColor=inherit;overflow=hidden;fillColor=none;top=0;left=0;bottom=0;right=0;pointerEvents=1;fontSize=16;" parent="CAwmhURl8O9o6Oq5V2A1-69" vertex="1">
          <mxGeometry x="189" width="15" height="40" as="geometry">
            <mxRectangle width="15" height="40" as="alternateBounds" />
          </mxGeometry>
        </mxCell>
        <mxCell id="CAwmhURl8O9o6Oq5V2A1-77" value="" style="shape=partialRectangle;html=1;whiteSpace=wrap;connectable=0;strokeColor=inherit;overflow=hidden;fillColor=none;top=0;left=0;bottom=0;right=0;pointerEvents=1;fontSize=16;" parent="CAwmhURl8O9o6Oq5V2A1-69" vertex="1">
          <mxGeometry x="204" width="48" height="40" as="geometry">
            <mxRectangle width="48" height="40" as="alternateBounds" />
          </mxGeometry>
        </mxCell>
        <mxCell id="CAwmhURl8O9o6Oq5V2A1-78" style="shape=partialRectangle;html=1;whiteSpace=wrap;connectable=0;strokeColor=inherit;overflow=hidden;fillColor=none;top=0;left=0;bottom=0;right=0;pointerEvents=1;fontSize=16;" parent="CAwmhURl8O9o6Oq5V2A1-69" vertex="1">
          <mxGeometry x="252" width="15" height="40" as="geometry">
            <mxRectangle width="15" height="40" as="alternateBounds" />
          </mxGeometry>
        </mxCell>
        <mxCell id="CAwmhURl8O9o6Oq5V2A1-79" value="" style="endArrow=classic;html=1;rounded=0;exitX=0.266;exitY=1.012;exitDx=0;exitDy=0;exitPerimeter=0;entryX=0.499;entryY=-0.008;entryDx=0;entryDy=0;entryPerimeter=0;strokeWidth=1;" parent="1" source="CAwmhURl8O9o6Oq5V2A1-57" target="CAwmhURl8O9o6Oq5V2A1-69" edge="1">
          <mxGeometry width="50" height="50" relative="1" as="geometry">
            <mxPoint x="920" y="710" as="sourcePoint" />
            <mxPoint x="970" y="660" as="targetPoint" />
          </mxGeometry>
        </mxCell>
        <mxCell id="CAwmhURl8O9o6Oq5V2A1-80" value="" style="shape=table;startSize=0;container=1;collapsible=0;childLayout=tableLayout;fontSize=16;" parent="1" vertex="1">
          <mxGeometry x="1280" y="880" width="190" height="40" as="geometry" />
        </mxCell>
        <mxCell id="CAwmhURl8O9o6Oq5V2A1-81" value="" style="shape=tableRow;horizontal=0;startSize=0;swimlaneHead=0;swimlaneBody=0;strokeColor=inherit;top=0;left=0;bottom=0;right=0;collapsible=0;dropTarget=0;fillColor=none;points=[[0,0.5],[1,0.5]];portConstraint=eastwest;fontSize=16;" parent="CAwmhURl8O9o6Oq5V2A1-80" vertex="1">
          <mxGeometry width="190" height="40" as="geometry" />
        </mxCell>
        <mxCell id="CAwmhURl8O9o6Oq5V2A1-82" value="73" style="shape=partialRectangle;html=1;whiteSpace=wrap;connectable=0;strokeColor=inherit;overflow=hidden;fillColor=none;top=0;left=0;bottom=0;right=0;pointerEvents=1;fontSize=16;" parent="CAwmhURl8O9o6Oq5V2A1-81" vertex="1">
          <mxGeometry width="48" height="40" as="geometry">
            <mxRectangle width="48" height="40" as="alternateBounds" />
          </mxGeometry>
        </mxCell>
        <mxCell id="CAwmhURl8O9o6Oq5V2A1-83" value="80" style="shape=partialRectangle;html=1;whiteSpace=wrap;connectable=0;strokeColor=inherit;overflow=hidden;fillColor=none;top=0;left=0;bottom=0;right=0;pointerEvents=1;fontSize=16;" parent="CAwmhURl8O9o6Oq5V2A1-81" vertex="1">
          <mxGeometry x="48" width="47" height="40" as="geometry">
            <mxRectangle width="47" height="40" as="alternateBounds" />
          </mxGeometry>
        </mxCell>
        <mxCell id="CAwmhURl8O9o6Oq5V2A1-84" value="" style="shape=partialRectangle;html=1;whiteSpace=wrap;connectable=0;overflow=hidden;top=0;left=0;bottom=0;right=0;pointerEvents=1;fontSize=16;fillColor=none;strokeColor=inherit;" parent="CAwmhURl8O9o6Oq5V2A1-81" vertex="1">
          <mxGeometry x="95" width="48" height="40" as="geometry">
            <mxRectangle width="48" height="40" as="alternateBounds" />
          </mxGeometry>
        </mxCell>
        <mxCell id="CAwmhURl8O9o6Oq5V2A1-85" value="" style="shape=partialRectangle;html=1;whiteSpace=wrap;connectable=0;strokeColor=inherit;overflow=hidden;fillColor=none;top=0;left=0;bottom=0;right=0;pointerEvents=1;fontSize=16;" parent="CAwmhURl8O9o6Oq5V2A1-81" vertex="1">
          <mxGeometry x="143" width="47" height="40" as="geometry">
            <mxRectangle width="47" height="40" as="alternateBounds" />
          </mxGeometry>
        </mxCell>
        <mxCell id="CAwmhURl8O9o6Oq5V2A1-86" value="" style="shape=table;startSize=0;container=1;collapsible=0;childLayout=tableLayout;fontSize=16;" parent="1" vertex="1">
          <mxGeometry x="1484" y="880" width="190" height="40" as="geometry" />
        </mxCell>
        <mxCell id="CAwmhURl8O9o6Oq5V2A1-87" value="" style="shape=tableRow;horizontal=0;startSize=0;swimlaneHead=0;swimlaneBody=0;strokeColor=inherit;top=0;left=0;bottom=0;right=0;collapsible=0;dropTarget=0;fillColor=none;points=[[0,0.5],[1,0.5]];portConstraint=eastwest;fontSize=16;" parent="CAwmhURl8O9o6Oq5V2A1-86" vertex="1">
          <mxGeometry width="190" height="40" as="geometry" />
        </mxCell>
        <mxCell id="CAwmhURl8O9o6Oq5V2A1-88" value="91" style="shape=partialRectangle;html=1;whiteSpace=wrap;connectable=0;strokeColor=inherit;overflow=hidden;fillColor=none;top=0;left=0;bottom=0;right=0;pointerEvents=1;fontSize=16;" parent="CAwmhURl8O9o6Oq5V2A1-87" vertex="1">
          <mxGeometry width="48" height="40" as="geometry">
            <mxRectangle width="48" height="40" as="alternateBounds" />
          </mxGeometry>
        </mxCell>
        <mxCell id="CAwmhURl8O9o6Oq5V2A1-89" value="99" style="shape=partialRectangle;html=1;whiteSpace=wrap;connectable=0;strokeColor=inherit;overflow=hidden;fillColor=none;top=0;left=0;bottom=0;right=0;pointerEvents=1;fontSize=16;" parent="CAwmhURl8O9o6Oq5V2A1-87" vertex="1">
          <mxGeometry x="48" width="47" height="40" as="geometry">
            <mxRectangle width="47" height="40" as="alternateBounds" />
          </mxGeometry>
        </mxCell>
        <mxCell id="CAwmhURl8O9o6Oq5V2A1-90" value="" style="shape=partialRectangle;html=1;whiteSpace=wrap;connectable=0;overflow=hidden;top=0;left=0;bottom=0;right=0;pointerEvents=1;fontSize=16;fillColor=none;strokeColor=inherit;" parent="CAwmhURl8O9o6Oq5V2A1-87" vertex="1">
          <mxGeometry x="95" width="48" height="40" as="geometry">
            <mxRectangle width="48" height="40" as="alternateBounds" />
          </mxGeometry>
        </mxCell>
        <mxCell id="CAwmhURl8O9o6Oq5V2A1-91" value="" style="shape=partialRectangle;html=1;whiteSpace=wrap;connectable=0;strokeColor=inherit;overflow=hidden;fillColor=none;top=0;left=0;bottom=0;right=0;pointerEvents=1;fontSize=16;" parent="CAwmhURl8O9o6Oq5V2A1-87" vertex="1">
          <mxGeometry x="143" width="47" height="40" as="geometry">
            <mxRectangle width="47" height="40" as="alternateBounds" />
          </mxGeometry>
        </mxCell>
        <mxCell id="CAwmhURl8O9o6Oq5V2A1-92" value="" style="endArrow=classic;html=1;rounded=0;entryX=0.499;entryY=0;entryDx=0;entryDy=0;entryPerimeter=0;exitX=0.264;exitY=1.02;exitDx=0;exitDy=0;exitPerimeter=0;" parent="1" source="CAwmhURl8O9o6Oq5V2A1-69" target="CAwmhURl8O9o6Oq5V2A1-81" edge="1">
          <mxGeometry width="50" height="50" relative="1" as="geometry">
            <mxPoint x="1140" y="860" as="sourcePoint" />
            <mxPoint x="1190" y="810" as="targetPoint" />
          </mxGeometry>
        </mxCell>
        <mxCell id="CAwmhURl8O9o6Oq5V2A1-93" value="" style="endArrow=classic;html=1;rounded=0;entryX=0.495;entryY=-0.04;entryDx=0;entryDy=0;entryPerimeter=0;exitX=0.494;exitY=1.02;exitDx=0;exitDy=0;exitPerimeter=0;" parent="1" source="CAwmhURl8O9o6Oq5V2A1-69" target="CAwmhURl8O9o6Oq5V2A1-87" edge="1">
          <mxGeometry width="50" height="50" relative="1" as="geometry">
            <mxPoint x="1140" y="860" as="sourcePoint" />
            <mxPoint x="1190" y="810" as="targetPoint" />
          </mxGeometry>
        </mxCell>
        <mxCell id="CAwmhURl8O9o6Oq5V2A1-94" value="&lt;font style=&quot;font-size: 16px;&quot;&gt;27 &amp;lt; 50&lt;/font&gt;" style="text;html=1;strokeColor=none;fillColor=none;align=center;verticalAlign=middle;whiteSpace=wrap;rounded=0;" parent="1" vertex="1">
          <mxGeometry x="710" y="680" width="90" height="30" as="geometry" />
        </mxCell>
        <mxCell id="CAwmhURl8O9o6Oq5V2A1-95" value="&lt;font style=&quot;font-size: 16px;&quot;&gt;18 &amp;lt;= 27 &amp;lt; 32&lt;/font&gt;" style="text;html=1;strokeColor=none;fillColor=none;align=center;verticalAlign=middle;whiteSpace=wrap;rounded=0;" parent="1" vertex="1">
          <mxGeometry x="480" y="830" width="120" height="30" as="geometry" />
        </mxCell>
        <mxCell id="CAwmhURl8O9o6Oq5V2A1-97" value="&lt;font style=&quot;font-size: 16px;&quot;&gt;Step 3: Check if the data leaf node underflow. Here it doesn&#39;t.&lt;/font&gt;" style="text;html=1;strokeColor=none;fillColor=none;align=center;verticalAlign=middle;whiteSpace=wrap;rounded=0;" parent="1" vertex="1">
          <mxGeometry x="31" y="535" width="450" height="30" as="geometry" />
        </mxCell>
        <mxCell id="bvcpaR9YtZLqeWQo9t_4-1" value="" style="endArrow=classic;startArrow=classic;html=1;rounded=0;exitX=1;exitY=0.5;exitDx=0;exitDy=0;entryX=0;entryY=0.5;entryDx=0;entryDy=0;" edge="1" parent="1" source="gfehp5p-V9e-1P1ylHKR-24" target="DPHD8KvLjeDx3O2cw2pP-20">
          <mxGeometry width="50" height="50" relative="1" as="geometry">
            <mxPoint x="500" y="390" as="sourcePoint" />
            <mxPoint x="550" y="340" as="targetPoint" />
          </mxGeometry>
        </mxCell>
        <mxCell id="bvcpaR9YtZLqeWQo9t_4-2" value="" style="endArrow=classic;startArrow=classic;html=1;rounded=0;exitX=1;exitY=0.5;exitDx=0;exitDy=0;entryX=0;entryY=0.5;entryDx=0;entryDy=0;" edge="1" parent="1" source="DPHD8KvLjeDx3O2cw2pP-20" target="9ntbfwSOvVafJQgxA-3O-6">
          <mxGeometry width="50" height="50" relative="1" as="geometry">
            <mxPoint x="500" y="390" as="sourcePoint" />
            <mxPoint x="550" y="340" as="targetPoint" />
          </mxGeometry>
        </mxCell>
        <mxCell id="bvcpaR9YtZLqeWQo9t_4-3" value="" style="endArrow=classic;startArrow=classic;html=1;rounded=0;entryX=0;entryY=0.5;entryDx=0;entryDy=0;exitX=1;exitY=0.5;exitDx=0;exitDy=0;" edge="1" parent="1" source="9ntbfwSOvVafJQgxA-3O-6" target="DPHD8KvLjeDx3O2cw2pP-2">
          <mxGeometry width="50" height="50" relative="1" as="geometry">
            <mxPoint x="500" y="390" as="sourcePoint" />
            <mxPoint x="550" y="340" as="targetPoint" />
          </mxGeometry>
        </mxCell>
        <mxCell id="bvcpaR9YtZLqeWQo9t_4-4" value="" style="endArrow=classic;startArrow=classic;html=1;rounded=0;entryX=0;entryY=0.5;entryDx=0;entryDy=0;exitX=1;exitY=0.5;exitDx=0;exitDy=0;" edge="1" parent="1" source="DPHD8KvLjeDx3O2cw2pP-2" target="DPHD8KvLjeDx3O2cw2pP-8">
          <mxGeometry width="50" height="50" relative="1" as="geometry">
            <mxPoint x="500" y="390" as="sourcePoint" />
            <mxPoint x="550" y="340" as="targetPoint" />
          </mxGeometry>
        </mxCell>
        <mxCell id="bvcpaR9YtZLqeWQo9t_4-5" value="" style="endArrow=classic;startArrow=classic;html=1;rounded=0;exitX=1;exitY=0.5;exitDx=0;exitDy=0;entryX=0;entryY=0.5;entryDx=0;entryDy=0;" edge="1" parent="1" source="DPHD8KvLjeDx3O2cw2pP-8" target="pHo-uAJ-a0RJnJzjXzOe-2">
          <mxGeometry width="50" height="50" relative="1" as="geometry">
            <mxPoint x="1280" y="390" as="sourcePoint" />
            <mxPoint x="1330" y="340" as="targetPoint" />
          </mxGeometry>
        </mxCell>
        <mxCell id="bvcpaR9YtZLqeWQo9t_4-6" value="" style="endArrow=classic;startArrow=classic;html=1;rounded=0;exitX=1;exitY=0.5;exitDx=0;exitDy=0;entryX=0;entryY=0.5;entryDx=0;entryDy=0;" edge="1" parent="1" source="pHo-uAJ-a0RJnJzjXzOe-2" target="autU-3Pc4H1RiV7rEtkj-2">
          <mxGeometry width="50" height="50" relative="1" as="geometry">
            <mxPoint x="1280" y="390" as="sourcePoint" />
            <mxPoint x="1330" y="340" as="targetPoint" />
          </mxGeometry>
        </mxCell>
        <mxCell id="bvcpaR9YtZLqeWQo9t_4-7" value="" style="endArrow=classic;startArrow=classic;html=1;rounded=0;entryX=0;entryY=0.5;entryDx=0;entryDy=0;exitX=1;exitY=0.5;exitDx=0;exitDy=0;" edge="1" parent="1" source="autU-3Pc4H1RiV7rEtkj-2" target="autU-3Pc4H1RiV7rEtkj-8">
          <mxGeometry width="50" height="50" relative="1" as="geometry">
            <mxPoint x="1280" y="390" as="sourcePoint" />
            <mxPoint x="1330" y="340" as="targetPoint" />
          </mxGeometry>
        </mxCell>
        <mxCell id="bvcpaR9YtZLqeWQo9t_4-8" value="" style="endArrow=classic;startArrow=classic;html=1;rounded=0;entryX=0;entryY=0.5;entryDx=0;entryDy=0;exitX=1;exitY=0.5;exitDx=0;exitDy=0;" edge="1" parent="1" source="CAwmhURl8O9o6Oq5V2A1-81" target="CAwmhURl8O9o6Oq5V2A1-87">
          <mxGeometry width="50" height="50" relative="1" as="geometry">
            <mxPoint x="1280" y="890" as="sourcePoint" />
            <mxPoint x="1330" y="840" as="targetPoint" />
          </mxGeometry>
        </mxCell>
        <mxCell id="bvcpaR9YtZLqeWQo9t_4-9" value="" style="endArrow=classic;startArrow=classic;html=1;rounded=0;exitX=1;exitY=0.5;exitDx=0;exitDy=0;entryX=0;entryY=0.5;entryDx=0;entryDy=0;" edge="1" parent="1" source="CAwmhURl8O9o6Oq5V2A1-49" target="CAwmhURl8O9o6Oq5V2A1-81">
          <mxGeometry width="50" height="50" relative="1" as="geometry">
            <mxPoint x="1280" y="890" as="sourcePoint" />
            <mxPoint x="1330" y="840" as="targetPoint" />
          </mxGeometry>
        </mxCell>
        <mxCell id="bvcpaR9YtZLqeWQo9t_4-10" value="" style="endArrow=classic;startArrow=classic;html=1;rounded=0;exitX=1;exitY=0.5;exitDx=0;exitDy=0;entryX=0;entryY=0.5;entryDx=0;entryDy=0;" edge="1" parent="1" source="CAwmhURl8O9o6Oq5V2A1-33" target="CAwmhURl8O9o6Oq5V2A1-49">
          <mxGeometry width="50" height="50" relative="1" as="geometry">
            <mxPoint x="1280" y="890" as="sourcePoint" />
            <mxPoint x="1330" y="840" as="targetPoint" />
          </mxGeometry>
        </mxCell>
        <mxCell id="bvcpaR9YtZLqeWQo9t_4-12" value="" style="endArrow=classic;startArrow=classic;html=1;rounded=0;entryX=0;entryY=0.5;entryDx=0;entryDy=0;exitX=1;exitY=0.5;exitDx=0;exitDy=0;" edge="1" parent="1" source="CAwmhURl8O9o6Oq5V2A1-27" target="CAwmhURl8O9o6Oq5V2A1-33">
          <mxGeometry width="50" height="50" relative="1" as="geometry">
            <mxPoint x="550" y="890" as="sourcePoint" />
            <mxPoint x="600" y="840" as="targetPoint" />
          </mxGeometry>
        </mxCell>
        <mxCell id="bvcpaR9YtZLqeWQo9t_4-13" value="" style="endArrow=classic;startArrow=classic;html=1;rounded=0;entryX=0;entryY=0.5;entryDx=0;entryDy=0;exitX=1;exitY=0.5;exitDx=0;exitDy=0;" edge="1" parent="1" source="CAwmhURl8O9o6Oq5V2A1-21" target="CAwmhURl8O9o6Oq5V2A1-27">
          <mxGeometry width="50" height="50" relative="1" as="geometry">
            <mxPoint x="550" y="890" as="sourcePoint" />
            <mxPoint x="600" y="840" as="targetPoint" />
          </mxGeometry>
        </mxCell>
        <mxCell id="bvcpaR9YtZLqeWQo9t_4-14" value="" style="endArrow=classic;startArrow=classic;html=1;rounded=0;exitX=1;exitY=0.5;exitDx=0;exitDy=0;entryX=0;entryY=0.5;entryDx=0;entryDy=0;" edge="1" parent="1" source="CAwmhURl8O9o6Oq5V2A1-39" target="CAwmhURl8O9o6Oq5V2A1-21">
          <mxGeometry width="50" height="50" relative="1" as="geometry">
            <mxPoint x="550" y="890" as="sourcePoint" />
            <mxPoint x="600" y="840" as="targetPoint" />
          </mxGeometry>
        </mxCell>
        <mxCell id="bvcpaR9YtZLqeWQo9t_4-15" value="" style="endArrow=classic;startArrow=classic;html=1;rounded=0;exitX=1;exitY=0.5;exitDx=0;exitDy=0;entryX=0;entryY=0.5;entryDx=0;entryDy=0;" edge="1" parent="1" source="CAwmhURl8O9o6Oq5V2A1-13" target="CAwmhURl8O9o6Oq5V2A1-39">
          <mxGeometry width="50" height="50" relative="1" as="geometry">
            <mxPoint x="550" y="890" as="sourcePoint" />
            <mxPoint x="600" y="840" as="targetPoint" />
          </mxGeometry>
        </mxCell>
      </root>
    </mxGraphModel>
  </diagram>
</mxfile>
